<?xml version="1.0" encoding="utf-8" ?>
<svg baseProfile="full" height="2500" version="1.1" width="2184" xmlns="http://www.w3.org/2000/svg" xmlns:ev="http://www.w3.org/2001/xml-events" xmlns:xlink="http://www.w3.org/1999/xlink"><defs><marker id="arrow" markerHeight="3.5" markerWidth="5" orient="auto" refX="5.0" refY="1.7"><polygon points="0,0 5,1.75 0,3.5" /></marker></defs><g style="fill:white;"><g transform="matrix(1.0, 0.0, 0.0, 1.0, 1092.0, 1249.6709998772765)"><g transform="matrix(253.27594154199804, 0.0, 0.0, 253.27594154199804, 0.0, 0.0)"><g><g transform="matrix(1.0, 0.0, 0.0, 1.0, -0.0, -0.0)"><g><g style="fill: #ffffff;stroke: black;stroke-width: 7.5;" transform="matrix(1.0, 0.0, 0.0, 1.0, -4.106193401821972, -4.6990758371285155)"><path d="M 0.0 0.0 L 8.212386803643945 0.0 L 8.212386803643945 9.398151674257031 L 0.0 9.398151674257031 L 0.0 0.0 Z" style="vector-effect: non-scaling-stroke;" /></g><g transform="matrix(1.0, 0.0, 0.0, 1.0, -0.0, -4.1990758371285155)"><g><g /><g transform="matrix(1.0, 0.0, 0.0, 1.0, 0.0, 0.0)"><g transform="matrix(0.0, -1.0, 1.0, 0.0, 0.0, 0.0)"><g /></g></g><g transform="matrix(1.0, 0.0, 0.0, 1.0, 0.0, 0.0)"><g><g /><g transform="matrix(1.0, 0.0, 0.0, 1.0, 0.0, 0.0)"><g transform="matrix(0.0, -1.0, 1.0, 0.0, 0.0, 0.0)"><g /></g></g><g transform="matrix(1.0, 0.0, 0.0, 1.0, 0.0, 0.0)"><g /></g><g transform="matrix(1.0, 0.0, 0.0, 1.0, 0.0, 0.0)"><g transform="matrix(0.0, -1.0, 1.0, 0.0, 0.0, 0.0)"><g /></g></g><g transform="matrix(1.0, 0.0, 0.0, 1.0, 0.0, 0.0)"><g><g /><g transform="matrix(1.0, 0.0, 0.0, 1.0, 0.0, 0.0)"><g transform="matrix(0.0, -1.0, 1.0, 0.0, 0.0, 0.0)"><g /></g></g><g transform="matrix(1.0, 0.0, 0.0, 1.0, 0.0, 0.0)"><g /></g></g></g><g transform="matrix(1.0, 0.0, 0.0, 1.0, 0.0, 0.0)"><g transform="matrix(0.0, -1.0, 1.0, 0.0, 0.0, 0.0)"><g /></g></g><g transform="matrix(1.0, 0.0, 0.0, 1.0, 0.0, 0.0)"><g><g /><g transform="matrix(1.0, 0.0, 0.0, 1.0, 0.0, 0.0)"><g transform="matrix(0.0, -1.0, 1.0, 0.0, 0.0, 0.0)"><g /></g></g><g transform="matrix(1.0, 0.0, 0.0, 1.0, 0.0, 0.0)"><g /></g><g transform="matrix(1.0, 0.0, 0.0, 1.0, 0.0, 0.0)"><g transform="matrix(0.0, -1.0, 1.0, 0.0, 0.0, 0.0)"><g /></g></g><g transform="matrix(1.0, 0.0, 0.0, 1.0, 0.0, 0.0)"><g><g /><g transform="matrix(1.0, 0.0, 0.0, 1.0, 0.0, 0.0)"><g transform="matrix(0.0, -1.0, 1.0, 0.0, 0.0, 0.0)"><g /></g></g><g transform="matrix(1.0, 0.0, 0.0, 1.0, 0.0, 0.0)"><g /></g></g></g></g></g><g transform="matrix(1.0, 0.0, 0.0, 1.0, 0.0, 0.0)"><g transform="matrix(0.0, -1.0, 1.0, 0.0, 0.0, 0.0)"><g /></g></g><g transform="matrix(1.0, 0.0, 0.0, 1.0, 0.0, 0.0)"><g><g /><g transform="matrix(1.0, 0.0, 0.0, 1.0, 0.0, 0.0)"><g transform="matrix(0.0, -1.0, 1.0, 0.0, 0.0, 0.0)"><g /></g></g><g transform="matrix(1.0, 0.0, 0.0, 1.0, 0.0, 0.0)"><g /></g><g transform="matrix(1.0, 0.0, 0.0, 1.0, 0.0, 0.0)"><g transform="matrix(0.0, -1.0, 1.0, 0.0, 0.0, 0.0)"><g /></g></g><g transform="matrix(1.0, 0.0, 0.0, 1.0, 0.0, 0.0)"><g><g /><g transform="matrix(1.0, 0.0, 0.0, 1.0, 0.0, 0.0)"><g transform="matrix(0.0, -1.0, 1.0, 0.0, 0.0, 0.0)"><g /></g></g><g transform="matrix(1.0, 0.0, 0.0, 1.0, 0.0, 0.0)"><g /></g></g></g><g transform="matrix(1.0, 0.0, 0.0, 1.0, 0.0, 0.0)"><g transform="matrix(0.0, -1.0, 1.0, 0.0, 0.0, 0.0)"><g /></g></g><g transform="matrix(1.0, 0.0, 0.0, 1.0, 0.0, 0.0)"><g><g /><g transform="matrix(1.0, 0.0, 0.0, 1.0, 0.0, 0.0)"><g transform="matrix(0.0, -1.0, 1.0, 0.0, 0.0, 0.0)"><g /></g></g><g transform="matrix(1.0, 0.0, 0.0, 1.0, 0.0, 0.0)"><g /></g><g transform="matrix(1.0, 0.0, 0.0, 1.0, 0.0, 0.0)"><g transform="matrix(0.0, -1.0, 1.0, 0.0, 0.0, 0.0)"><g /></g></g><g transform="matrix(1.0, 0.0, 0.0, 1.0, 0.0, -8.326672684688674e-17)"><g><g /><g transform="matrix(1.0, 0.0, 0.0, 1.0, 0.0, 0.0)"><g transform="matrix(0.0, -1.0, 1.0, 0.0, 0.0, 0.0)"><g /></g></g><g transform="matrix(1.0, 0.0, 0.0, 1.0, 0.0, 1.399648751561774)"><g transform="matrix(1.0, 0.0, 0.0, 1.0, -0.0, -1.2996487515617738)"><g><g style="stroke: black;stroke-width: 7.5;" transform="matrix(1.0, 0.0, 0.0, 1.0, 0.0, 0.0)"><g /></g><g transform="matrix(1.0, 0.0, 0.0, 1.0, 0.0, 1.399648751561774)"><g><g transform="matrix(1.0, 0.0, 0.0, 1.0, -2.059578501874128, -0.0)"><g><g transform="matrix(1.0, 0.0, 0.0, 0.3762532066117721, 0.0, 0.0)"><g transform="matrix(0.45150384793412646, 0.0, 0.0, 1.0, 0.0, 0.0)"><g><g style="fill: #ffffff;stroke: black;stroke-width: 0.0;" transform="matrix(1.0, 0.0, 0.0, 1.0, -3.422230822313716, -3.422230822313716)"><path d="M 0.0 0.0 L 6.844461644627432 0.0 L 6.844461644627432 6.844461644627432 L 0.0 6.844461644627432 L 0.0 0.0 Z" style="vector-effect: non-scaling-stroke;" /></g><g transform="matrix(1.0, 0.0, 0.0, 1.0, -3.3122790574940044, 0.8730427563015305)"><g transform="matrix(0.06708732933686862, 0.0, 0.0, 1.0, 0.0, 0.0)"><g transform="matrix(1.0, 0.0, 0.0, 0.4929952151031384, 0.0, 0.0)"><g><g style="fill: #f29f05;stroke: black;stroke-width: 0.0;fill-opacity: 0.4;" transform="matrix(1.0, 0.0, 0.0, 1.0, 0.0, 0.0)"><path d="M 0.0 0.0 L -0.14834045293024464 -0.28128047484684726 L -0.14834045293024464 0.6774171435894906 L 0.0 0.9586976184363378 L 0.0 0.0 Z" style="vector-effect: non-scaling-stroke;" /></g><g /><g style="fill: #f29f05;stroke: black;stroke-width: 0.0;fill-opacity: 0.4;" transform="matrix(1.0, 0.0, 0.0, 1.0, 0.0, 0.0)"><path d="M 0.0 0.0 L -0.14834045293024464 -0.28128047484684726 L 31.49762283885528 -1.6314267541117142 L 31.645963291785524 -1.3501462792648669 L 0.0 0.0 Z" style="vector-effect: non-scaling-stroke;" /></g><g /><g style="fill: #f29f05;stroke: black;stroke-width: 0.0;fill-opacity: 0.4;" transform="matrix(1.0, 0.0, 0.0, 1.0, 0.0, 0.0)"><path d="M 0.0 0.0 L 31.645963291785524 -1.3501462792648669 L 31.645963291785524 -0.391448660828529 L 0.0 0.9586976184363378 L 0.0 0.0 Z" style="vector-effect: non-scaling-stroke;" /></g><g /><g style="stroke: #000000;stroke-width: 0.075;" transform="matrix(1.0, 0.0, 0.0, 1.0, 0.0, 0.0)"><path d="M 0.0 0.0 L -0.14834045293024464 -0.28128047484684726 L -0.14834045293024464 0.6774171435894906 L -0.14834045293024464 -0.28128047484684726 Z" style="vector-effect: non-scaling-stroke;" /></g><g /><g style="stroke: #000000;stroke-width: 0.075;" transform="matrix(1.0, 0.0, 0.0, 1.0, 0.0, 0.0)"><path d="M 0.0 0.0 L -0.14834045293024464 -0.28128047484684726 L 31.49762283885528 -1.6314267541117142 L -0.14834045293024545 -0.2812804748468474 Z" style="vector-effect: non-scaling-stroke;" /></g><g /><g style="stroke: #000000;stroke-width: 0.075;" transform="matrix(1.0, 0.0, 0.0, 1.0, 0.0, 0.0)"><path d="M 0.0 0.0 L 0.0 0.9586976184363378 L -0.14834045293024464 0.6774171435894906 L 0.0 0.9586976184363378 Z" style="vector-effect: non-scaling-stroke;" /></g><g /><g style="stroke: #000000;stroke-width: 0.075;" transform="matrix(1.0, 0.0, 0.0, 1.0, 0.0, 0.0)"><path d="M 0.0 0.0 L 0.0 0.9586976184363378 L 31.645963291785524 -0.391448660828529 L 0.0 0.9586976184363378 Z" style="vector-effect: non-scaling-stroke;" /></g><g /><g style="stroke: #000000;stroke-width: 0.075;" transform="matrix(1.0, 0.0, 0.0, 1.0, 0.0, 0.0)"><path d="M 0.0 0.0 L 0.9889363528682976 -0.04219207122702709 L 0.840595899938053 -0.3234725460738743 L 0.9889363528682976 -0.04219207122702706 L 1.9778727057365952 -0.08438414245405415 L 1.8295322528063507 -0.3656646173009014 L 1.9778727057365952 -0.08438414245405412 L 2.966809058604893 -0.1265762136810812 L 2.8184686056746484 -0.40785668852792845 L 2.966809058604893 -0.12657621368108118 L 3.9557454114731905 -0.16876828490810827 L 3.807404958542946 -0.4500487597549555 L 3.9557454114731905 -0.16876828490810825 L 4.944681764341488 -0.21096035613513534 L 4.796341311411243 -0.49224083098198257 L 4.944681764341488 -0.2109603561351353 L 5.933618117209786 -0.25315242736216237 L 5.785277664279541 -0.5344329022090096 L 5.933618117209786 -0.25315242736216237 L 6.922554470078084 -0.29534449858918943 L 6.774214017147839 -0.5766249734360367 L 6.922554470078084 -0.29534449858918943 L 7.911490822946382 -0.3375365698162165 L 7.763150370016137 -0.6188170446630638 L 7.911490822946382 -0.3375365698162165 L 8.900427175814679 -0.37972864104324355 L 8.752086722884433 -0.6610091158900908 L 8.900427175814679 -0.37972864104324355 L 9.889363528682976 -0.4219207122702706 L 9.74102307575273 -0.7032011871171179 L 9.889363528682976 -0.4219207122702706 L 10.878299881551273 -0.4641127834972977 L 10.729959428621028 -0.7453932583441449 L 10.878299881551273 -0.4641127834972977 L 11.86723623441957 -0.5063048547243247 L 11.718895781489325 -0.787585329571172 L 11.86723623441957 -0.5063048547243247 L 12.856172587287867 -0.5484969259513518 L 12.707832134357622 -0.8297774007981991 L 12.856172587287867 -0.5484969259513518 L 13.845108940156164 -0.5906889971783789 L 13.696768487225919 -0.8719694720252261 L 13.845108940156164 -0.5906889971783789 L 14.834045293024461 -0.6328810684054059 L 14.685704840094216 -0.9141615432522532 L 14.834045293024461 -0.6328810684054059 L 15.822981645892758 -0.675073139632433 L 15.674641192962513 -0.9563536144792802 L 15.822981645892758 -0.675073139632433 L 16.811917998761057 -0.71726521085946 L 16.66357754583081 -0.9985456857063073 L 16.811917998761057 -0.71726521085946 L 17.800854351629354 -0.7594572820864871 L 17.65251389869911 -1.0407377569333343 L 17.800854351629354 -0.759457282086487 L 18.78979070449765 -0.8016493533135141 L 18.641450251567406 -1.0829298281603612 L 18.78979070449765 -0.801649353313514 L 19.77872705736595 -0.843841424540541 L 19.630386604435703 -1.1251218993873882 L 19.77872705736595 -0.8438414245405409 L 20.767663410234245 -0.886033495767568 L 20.619322957304 -1.167313970614415 L 20.767663410234245 -0.8860334957675678 L 21.756599763102543 -0.9282255669945949 L 21.608259310172297 -1.209506041841442 L 21.756599763102543 -0.9282255669945948 L 22.74553611597084 -0.9704176382216219 L 22.597195663040594 -1.251698113068469 L 22.74553611597084 -0.9704176382216217 L 23.734472468839137 -1.0126097094486488 L 23.58613201590889 -1.293890184295496 L 23.734472468839137 -1.0126097094486486 L 24.723408821707434 -1.0548017806756758 L 24.57506836877719 -1.336082255522523 L 24.723408821707434 -1.0548017806756755 L 25.71234517457573 -1.0969938519027027 L 25.564004721645485 -1.3782743267495499 L 25.71234517457573 -1.0969938519027025 L 26.701281527444028 -1.1391859231297297 L 26.552941074513782 -1.4204663979765768 L 26.701281527444028 -1.1391859231297294 L 27.690217880312325 -1.1813779943567566 L 27.54187742738208 -1.4626584692036038 L 27.690217880312325 -1.1813779943567564 L 28.679154233180622 -1.2235700655837836 L 28.530813780250377 -1.5048505404306307 L 28.679154233180622 -1.2235700655837833 L 29.66809058604892 -1.2657621368108105 L 29.519750133118674 -1.5470426116576577 L 29.66809058604892 -1.2657621368108103 L 30.657026938917216 -1.3079542080378375 L 30.50868648598697 -1.5892346828846846 L 30.657026938917216 -1.3079542080378372 L 31.645963291785513 -1.3501462792648644 L 31.497622838855268 -1.6314267541117116 L 31.645963291785513 -1.3501462792648642 Z" style="vector-effect: non-scaling-stroke;" /></g><g /><g style="stroke: #000000;stroke-width: 0.075;" transform="matrix(1.0, 0.0, 0.0, 1.0, 0.0, 0.0)"><path d="M 0.0 0.0 L 0.9889363528682976 -0.04219207122702709 L 0.9889363528682976 0.9165055472093108 L 0.9889363528682976 -0.04219207122702706 L 1.9778727057365952 -0.08438414245405415 L 1.9778727057365952 0.8743134759822837 L 1.9778727057365952 -0.08438414245405412 L 2.966809058604893 -0.1265762136810812 L 2.966809058604893 0.8321214047552566 L 2.966809058604893 -0.12657621368108118 L 3.9557454114731905 -0.16876828490810827 L 3.9557454114731905 0.7899293335282296 L 3.9557454114731905 -0.16876828490810825 L 4.944681764341488 -0.21096035613513534 L 4.944681764341488 0.7477372623012025 L 4.944681764341488 -0.2109603561351353 L 5.933618117209786 -0.25315242736216237 L 5.933618117209786 0.7055451910741755 L 5.933618117209786 -0.25315242736216237 L 6.922554470078084 -0.29534449858918943 L 6.922554470078084 0.6633531198471484 L 6.922554470078084 -0.29534449858918943 L 7.911490822946382 -0.3375365698162165 L 7.911490822946382 0.6211610486201213 L 7.911490822946382 -0.3375365698162165 L 8.900427175814679 -0.37972864104324355 L 8.900427175814679 0.5789689773930943 L 8.900427175814679 -0.37972864104324355 L 9.889363528682976 -0.4219207122702706 L 9.889363528682976 0.5367769061660672 L 9.889363528682976 -0.4219207122702706 L 10.878299881551273 -0.4641127834972977 L 10.878299881551273 0.49458483493904015 L 10.878299881551273 -0.4641127834972977 L 11.86723623441957 -0.5063048547243247 L 11.86723623441957 0.4523927637120131 L 11.86723623441957 -0.5063048547243247 L 12.856172587287867 -0.5484969259513518 L 12.856172587287867 0.41020069248498603 L 12.856172587287867 -0.5484969259513518 L 13.845108940156164 -0.5906889971783789 L 13.845108940156164 0.36800862125795897 L 13.845108940156164 -0.5906889971783789 L 14.834045293024461 -0.6328810684054059 L 14.834045293024461 0.3258165500309319 L 14.834045293024461 -0.6328810684054059 L 15.822981645892758 -0.675073139632433 L 15.822981645892758 0.28362447880390484 L 15.822981645892758 -0.675073139632433 L 16.811917998761057 -0.71726521085946 L 16.811917998761057 0.24143240757687778 L 16.811917998761057 -0.71726521085946 L 17.800854351629354 -0.7594572820864871 L 17.800854351629354 0.19924033634985072 L 17.800854351629354 -0.7594572820864871 L 18.78979070449765 -0.8016493533135142 L 18.78979070449765 0.15704826512282366 L 18.78979070449765 -0.8016493533135142 L 19.77872705736595 -0.8438414245405412 L 19.77872705736595 0.1148561938957966 L 19.77872705736595 -0.8438414245405412 L 20.767663410234245 -0.8860334957675683 L 20.767663410234245 0.07266412266876954 L 20.767663410234245 -0.8860334957675683 L 21.756599763102543 -0.9282255669945954 L 21.756599763102543 0.030472051441742476 L 21.756599763102543 -0.9282255669945954 L 22.74553611597084 -0.9704176382216224 L 22.74553611597084 -0.011720019785284586 L 22.74553611597084 -0.9704176382216224 L 23.734472468839137 -1.0126097094486495 L 23.734472468839137 -0.05391209101231165 L 23.734472468839137 -1.0126097094486495 L 24.723408821707434 -1.0548017806756766 L 24.723408821707434 -0.09610416223933882 L 24.723408821707434 -1.0548017806756766 L 25.71234517457573 -1.0969938519027038 L 25.71234517457573 -0.138296233466366 L 25.71234517457573 -1.0969938519027038 L 26.701281527444028 -1.139185923129731 L 26.701281527444028 -0.18048830469339316 L 26.701281527444028 -1.139185923129731 L 27.690217880312325 -1.1813779943567582 L 27.690217880312325 -0.22268037592042034 L 27.690217880312325 -1.1813779943567582 L 28.679154233180622 -1.2235700655837853 L 28.679154233180622 -0.2648724471474475 L 28.679154233180622 -1.2235700655837853 L 29.66809058604892 -1.2657621368108125 L 29.66809058604892 -0.3070645183744747 L 29.66809058604892 -1.2657621368108125 L 30.657026938917216 -1.3079542080378397 L 30.657026938917216 -0.34925658960150185 L 30.657026938917216 -1.3079542080378397 L 31.645963291785513 -1.3501462792648669 L 31.645963291785513 -0.391448660828529 L 31.645963291785513 -1.3501462792648669 Z" style="vector-effect: non-scaling-stroke;" /></g><g /><g /><g><g style="fill: #808080;stroke: #808080;stroke-width: 0.375;fill-opacity: 0.1;" transform="matrix(1.0, 0.0, 0.0, 1.0, 0.0, 0.0)"><path d="M -0.14834045293024464 -0.28128047484684726 L -0.14834045293024464 -0.28128047484684726 L -0.14834045293024464 0.6774171435894906 L -0.14834045293024464 0.6774171435894906 L -0.14834045293024464 -0.28128047484684726 Z" style="vector-effect: non-scaling-stroke;" /></g><g style="fill: #808080;stroke: #808080;stroke-width: 0.375;fill-opacity: 0.1;" transform="matrix(1.0, 0.0, 0.0, 1.0, 0.0, 0.0)"><path d="M -0.14834045293024464 -0.28128047484684726 L -0.14834045293024464 -0.28128047484684726 L 98.74529483389952 -4.500487597549556 L 98.74529483389952 -4.500487597549556 L -0.1483404529302419 -0.28128047484684693 Z" style="vector-effect: non-scaling-stroke;" /></g><g style="fill: #808080;stroke: #808080;stroke-width: 0.375;fill-opacity: 0.1;" transform="matrix(1.0, 0.0, 0.0, 1.0, 0.0, 0.0)"><path d="M -0.14834045293024464 -0.28128047484684726 L 98.74529483389952 -4.500487597549556 L 98.74529483389952 -3.5417899791132186 L -0.1483404529302419 0.6774171435894902 L -0.14834045293024464 -0.2812804748468475 Z" style="vector-effect: non-scaling-stroke;" /></g></g><g><g style="fill: #808080;stroke: #000000;stroke-width: 0.75;fill-opacity: 0.05;" transform="matrix(1.0, 0.0, 0.0, 1.0, 0.0, 0.0)"><path d="M 0.0 0.0 L -0.14834045293024464 -0.28128047484684726 L -0.14834045293024464 0.6774171435894906 L 0.0 0.9586976184363378 L 0.0 0.0 Z" style="vector-effect: non-scaling-stroke;" /></g><g style="fill: #808080;stroke: #000000;stroke-width: 0.75;fill-opacity: 0.05;" transform="matrix(1.0, 0.0, 0.0, 1.0, 0.0, 0.0)"><path d="M 0.0 0.0 L -0.14834045293024464 -0.28128047484684726 L 98.74529483389952 -4.500487597549556 L 98.89363528682976 -4.219207122702709 L 0.0 0.0 Z" style="vector-effect: non-scaling-stroke;" /></g><g style="fill: #808080;stroke: #000000;stroke-width: 0.75;fill-opacity: 0.05;" transform="matrix(1.0, 0.0, 0.0, 1.0, 0.0, 0.0)"><path d="M 0.0 0.0 L 98.89363528682976 -4.219207122702709 L 98.89363528682976 -3.2605095042663716 L 0.0 0.9586976184363376 L 0.0 -2.220446049250313e-16 Z" style="vector-effect: non-scaling-stroke;" /></g></g></g></g></g></g><g /></g></g></g><g style="stroke: black;stroke-width: 7.5;" transform="matrix(1.0, 0.0, 0.0, 1.0, 2.0451503847934127, 0.0)"><g /></g><g transform="matrix(1.0, 0.0, 0.0, 1.0, 4.104728886667541, 0.0)"><g transform="matrix(1.0, 0.0, 0.0, 0.4964875156177395, 0.0, 0.0)"><g transform="matrix(0.5957850187412874, 0.0, 0.0, 1.0, 0.0, 0.0)"><g><g style="fill: #ffffff;stroke: black;stroke-width: 0.0;" transform="matrix(1.0, 0.0, 0.0, 1.0, -2.617686670217126, -2.617686670217126)"><path d="M 0.0 0.0 L 5.235373340434252 0.0 L 5.235373340434252 5.235373340434252 L 0.0 5.235373340434252 L 0.0 0.0 Z" style="vector-effect: non-scaling-stroke;" /></g><g transform="matrix(1.0, 0.0, 0.0, 1.0, -2.4941934820035914, 0.23947407580537072)"><g transform="matrix(0.1583734426413138, 0.0, 0.0, 1.0, 0.0, 0.0)"><g transform="matrix(1.0, 0.0, 0.0, 0.7119479835371016, 0.0, 0.0)"><g><g style="fill: #f29f05;stroke: black;stroke-width: 0.0;fill-opacity: 0.4;" transform="matrix(1.0, 0.0, 0.0, 1.0, 0.0, 0.0)"><path d="M 0.0 0.0 L -0.14834045293024464 -0.28128047484684726 L -0.14834045293024464 0.6774171435894906 L 0.0 0.9586976184363378 L 0.0 0.0 Z" style="vector-effect: non-scaling-stroke;" /></g><g /><g style="fill: #f29f05;stroke: black;stroke-width: 0.0;fill-opacity: 0.4;" transform="matrix(1.0, 0.0, 0.0, 1.0, 0.0, 0.0)"><path d="M 0.0 0.0 L -0.14834045293024464 -0.28128047484684726 L 31.49762283885528 -1.6314267541117142 L 31.645963291785524 -1.3501462792648669 L 0.0 0.0 Z" style="vector-effect: non-scaling-stroke;" /></g><g /><g style="fill: #f29f05;stroke: black;stroke-width: 0.0;fill-opacity: 0.4;" transform="matrix(1.0, 0.0, 0.0, 1.0, 0.0, 0.0)"><path d="M 0.0 0.0 L 31.645963291785524 -1.3501462792648669 L 31.645963291785524 -0.391448660828529 L 0.0 0.9586976184363378 L 0.0 0.0 Z" style="vector-effect: non-scaling-stroke;" /></g><g /><g style="stroke: #000000;stroke-width: 0.075;" transform="matrix(1.0, 0.0, 0.0, 1.0, 0.0, 0.0)"><path d="M 0.0 0.0 L -0.14834045293024464 -0.28128047484684726 L -0.14834045293024464 0.6774171435894906 L -0.14834045293024464 -0.28128047484684726 Z" style="vector-effect: non-scaling-stroke;" /></g><g /><g style="stroke: #000000;stroke-width: 0.075;" transform="matrix(1.0, 0.0, 0.0, 1.0, 0.0, 0.0)"><path d="M 0.0 0.0 L -0.14834045293024464 -0.28128047484684726 L 31.49762283885528 -1.6314267541117142 L -0.14834045293024545 -0.2812804748468474 Z" style="vector-effect: non-scaling-stroke;" /></g><g /><g style="stroke: #000000;stroke-width: 0.075;" transform="matrix(1.0, 0.0, 0.0, 1.0, 0.0, 0.0)"><path d="M 0.0 0.0 L 0.0 0.9586976184363378 L -0.14834045293024464 0.6774171435894906 L 0.0 0.9586976184363378 Z" style="vector-effect: non-scaling-stroke;" /></g><g /><g style="stroke: #000000;stroke-width: 0.075;" transform="matrix(1.0, 0.0, 0.0, 1.0, 0.0, 0.0)"><path d="M 0.0 0.0 L 0.0 0.9586976184363378 L 31.645963291785524 -0.391448660828529 L 0.0 0.9586976184363378 Z" style="vector-effect: non-scaling-stroke;" /></g><g /><g style="stroke: #000000;stroke-width: 0.075;" transform="matrix(1.0, 0.0, 0.0, 1.0, 0.0, 0.0)"><path d="M 0.0 0.0 L 0.9889363528682976 -0.04219207122702709 L 0.840595899938053 -0.3234725460738743 L 0.9889363528682976 -0.04219207122702706 L 1.9778727057365952 -0.08438414245405415 L 1.8295322528063507 -0.3656646173009014 L 1.9778727057365952 -0.08438414245405412 L 2.966809058604893 -0.1265762136810812 L 2.8184686056746484 -0.40785668852792845 L 2.966809058604893 -0.12657621368108118 L 3.9557454114731905 -0.16876828490810827 L 3.807404958542946 -0.4500487597549555 L 3.9557454114731905 -0.16876828490810825 L 4.944681764341488 -0.21096035613513534 L 4.796341311411243 -0.49224083098198257 L 4.944681764341488 -0.2109603561351353 L 5.933618117209786 -0.25315242736216237 L 5.785277664279541 -0.5344329022090096 L 5.933618117209786 -0.25315242736216237 L 6.922554470078084 -0.29534449858918943 L 6.774214017147839 -0.5766249734360367 L 6.922554470078084 -0.29534449858918943 L 7.911490822946382 -0.3375365698162165 L 7.763150370016137 -0.6188170446630638 L 7.911490822946382 -0.3375365698162165 L 8.900427175814679 -0.37972864104324355 L 8.752086722884433 -0.6610091158900908 L 8.900427175814679 -0.37972864104324355 L 9.889363528682976 -0.4219207122702706 L 9.74102307575273 -0.7032011871171179 L 9.889363528682976 -0.4219207122702706 L 10.878299881551273 -0.4641127834972977 L 10.729959428621028 -0.7453932583441449 L 10.878299881551273 -0.4641127834972977 L 11.86723623441957 -0.5063048547243247 L 11.718895781489325 -0.787585329571172 L 11.86723623441957 -0.5063048547243247 L 12.856172587287867 -0.5484969259513518 L 12.707832134357622 -0.8297774007981991 L 12.856172587287867 -0.5484969259513518 L 13.845108940156164 -0.5906889971783789 L 13.696768487225919 -0.8719694720252261 L 13.845108940156164 -0.5906889971783789 L 14.834045293024461 -0.6328810684054059 L 14.685704840094216 -0.9141615432522532 L 14.834045293024461 -0.6328810684054059 L 15.822981645892758 -0.675073139632433 L 15.674641192962513 -0.9563536144792802 L 15.822981645892758 -0.675073139632433 L 16.811917998761057 -0.71726521085946 L 16.66357754583081 -0.9985456857063073 L 16.811917998761057 -0.71726521085946 L 17.800854351629354 -0.7594572820864871 L 17.65251389869911 -1.0407377569333343 L 17.800854351629354 -0.759457282086487 L 18.78979070449765 -0.8016493533135141 L 18.641450251567406 -1.0829298281603612 L 18.78979070449765 -0.801649353313514 L 19.77872705736595 -0.843841424540541 L 19.630386604435703 -1.1251218993873882 L 19.77872705736595 -0.8438414245405409 L 20.767663410234245 -0.886033495767568 L 20.619322957304 -1.167313970614415 L 20.767663410234245 -0.8860334957675678 L 21.756599763102543 -0.9282255669945949 L 21.608259310172297 -1.209506041841442 L 21.756599763102543 -0.9282255669945948 L 22.74553611597084 -0.9704176382216219 L 22.597195663040594 -1.251698113068469 L 22.74553611597084 -0.9704176382216217 L 23.734472468839137 -1.0126097094486488 L 23.58613201590889 -1.293890184295496 L 23.734472468839137 -1.0126097094486486 L 24.723408821707434 -1.0548017806756758 L 24.57506836877719 -1.336082255522523 L 24.723408821707434 -1.0548017806756755 L 25.71234517457573 -1.0969938519027027 L 25.564004721645485 -1.3782743267495499 L 25.71234517457573 -1.0969938519027025 L 26.701281527444028 -1.1391859231297297 L 26.552941074513782 -1.4204663979765768 L 26.701281527444028 -1.1391859231297294 L 27.690217880312325 -1.1813779943567566 L 27.54187742738208 -1.4626584692036038 L 27.690217880312325 -1.1813779943567564 L 28.679154233180622 -1.2235700655837836 L 28.530813780250377 -1.5048505404306307 L 28.679154233180622 -1.2235700655837833 L 29.66809058604892 -1.2657621368108105 L 29.519750133118674 -1.5470426116576577 L 29.66809058604892 -1.2657621368108103 L 30.657026938917216 -1.3079542080378375 L 30.50868648598697 -1.5892346828846846 L 30.657026938917216 -1.3079542080378372 L 31.645963291785513 -1.3501462792648644 L 31.497622838855268 -1.6314267541117116 L 31.645963291785513 -1.3501462792648642 Z" style="vector-effect: non-scaling-stroke;" /></g><g /><g style="stroke: #000000;stroke-width: 0.075;" transform="matrix(1.0, 0.0, 0.0, 1.0, 0.0, 0.0)"><path d="M 0.0 0.0 L 0.9889363528682976 -0.04219207122702709 L 0.9889363528682976 0.9165055472093108 L 0.9889363528682976 -0.04219207122702706 L 1.9778727057365952 -0.08438414245405415 L 1.9778727057365952 0.8743134759822837 L 1.9778727057365952 -0.08438414245405412 L 2.966809058604893 -0.1265762136810812 L 2.966809058604893 0.8321214047552566 L 2.966809058604893 -0.12657621368108118 L 3.9557454114731905 -0.16876828490810827 L 3.9557454114731905 0.7899293335282296 L 3.9557454114731905 -0.16876828490810825 L 4.944681764341488 -0.21096035613513534 L 4.944681764341488 0.7477372623012025 L 4.944681764341488 -0.2109603561351353 L 5.933618117209786 -0.25315242736216237 L 5.933618117209786 0.7055451910741755 L 5.933618117209786 -0.25315242736216237 L 6.922554470078084 -0.29534449858918943 L 6.922554470078084 0.6633531198471484 L 6.922554470078084 -0.29534449858918943 L 7.911490822946382 -0.3375365698162165 L 7.911490822946382 0.6211610486201213 L 7.911490822946382 -0.3375365698162165 L 8.900427175814679 -0.37972864104324355 L 8.900427175814679 0.5789689773930943 L 8.900427175814679 -0.37972864104324355 L 9.889363528682976 -0.4219207122702706 L 9.889363528682976 0.5367769061660672 L 9.889363528682976 -0.4219207122702706 L 10.878299881551273 -0.4641127834972977 L 10.878299881551273 0.49458483493904015 L 10.878299881551273 -0.4641127834972977 L 11.86723623441957 -0.5063048547243247 L 11.86723623441957 0.4523927637120131 L 11.86723623441957 -0.5063048547243247 L 12.856172587287867 -0.5484969259513518 L 12.856172587287867 0.41020069248498603 L 12.856172587287867 -0.5484969259513518 L 13.845108940156164 -0.5906889971783789 L 13.845108940156164 0.36800862125795897 L 13.845108940156164 -0.5906889971783789 L 14.834045293024461 -0.6328810684054059 L 14.834045293024461 0.3258165500309319 L 14.834045293024461 -0.6328810684054059 L 15.822981645892758 -0.675073139632433 L 15.822981645892758 0.28362447880390484 L 15.822981645892758 -0.675073139632433 L 16.811917998761057 -0.71726521085946 L 16.811917998761057 0.24143240757687778 L 16.811917998761057 -0.71726521085946 L 17.800854351629354 -0.7594572820864871 L 17.800854351629354 0.19924033634985072 L 17.800854351629354 -0.7594572820864871 L 18.78979070449765 -0.8016493533135142 L 18.78979070449765 0.15704826512282366 L 18.78979070449765 -0.8016493533135142 L 19.77872705736595 -0.8438414245405412 L 19.77872705736595 0.1148561938957966 L 19.77872705736595 -0.8438414245405412 L 20.767663410234245 -0.8860334957675683 L 20.767663410234245 0.07266412266876954 L 20.767663410234245 -0.8860334957675683 L 21.756599763102543 -0.9282255669945954 L 21.756599763102543 0.030472051441742476 L 21.756599763102543 -0.9282255669945954 L 22.74553611597084 -0.9704176382216224 L 22.74553611597084 -0.011720019785284586 L 22.74553611597084 -0.9704176382216224 L 23.734472468839137 -1.0126097094486495 L 23.734472468839137 -0.05391209101231165 L 23.734472468839137 -1.0126097094486495 L 24.723408821707434 -1.0548017806756766 L 24.723408821707434 -0.09610416223933882 L 24.723408821707434 -1.0548017806756766 L 25.71234517457573 -1.0969938519027038 L 25.71234517457573 -0.138296233466366 L 25.71234517457573 -1.0969938519027038 L 26.701281527444028 -1.139185923129731 L 26.701281527444028 -0.18048830469339316 L 26.701281527444028 -1.139185923129731 L 27.690217880312325 -1.1813779943567582 L 27.690217880312325 -0.22268037592042034 L 27.690217880312325 -1.1813779943567582 L 28.679154233180622 -1.2235700655837853 L 28.679154233180622 -0.2648724471474475 L 28.679154233180622 -1.2235700655837853 L 29.66809058604892 -1.2657621368108125 L 29.66809058604892 -0.3070645183744747 L 29.66809058604892 -1.2657621368108125 L 30.657026938917216 -1.3079542080378397 L 30.657026938917216 -0.34925658960150185 L 30.657026938917216 -1.3079542080378397 L 31.645963291785513 -1.3501462792648669 L 31.645963291785513 -0.391448660828529 L 31.645963291785513 -1.3501462792648669 Z" style="vector-effect: non-scaling-stroke;" /></g><g /><g /><g><g style="fill: #808080;stroke: #808080;stroke-width: 0.375;fill-opacity: 0.1;" transform="matrix(1.0, 0.0, 0.0, 1.0, 0.0, 0.0)"><path d="M -0.14834045293024464 -0.28128047484684726 L -0.14834045293024464 -0.28128047484684726 L -0.14834045293024464 0.6774171435894906 L -0.14834045293024464 0.6774171435894906 L -0.14834045293024464 -0.28128047484684726 Z" style="vector-effect: non-scaling-stroke;" /></g><g style="fill: #808080;stroke: #808080;stroke-width: 0.375;fill-opacity: 0.1;" transform="matrix(1.0, 0.0, 0.0, 1.0, 0.0, 0.0)"><path d="M -0.14834045293024464 -0.28128047484684726 L -0.14834045293024464 -0.28128047484684726 L 31.49762283885528 -1.6314267541117142 L 31.49762283885528 -1.6314267541117142 L -0.14834045293024545 -0.2812804748468474 Z" style="vector-effect: non-scaling-stroke;" /></g><g style="fill: #808080;stroke: #808080;stroke-width: 0.375;fill-opacity: 0.1;" transform="matrix(1.0, 0.0, 0.0, 1.0, 0.0, 0.0)"><path d="M -0.14834045293024464 -0.28128047484684726 L 31.49762283885528 -1.6314267541117142 L 31.49762283885528 -0.6727291356753764 L -0.14834045293024545 0.6774171435894906 L -0.14834045293024464 -0.28128047484684726 Z" style="vector-effect: non-scaling-stroke;" /></g></g><g><g style="fill: #808080;stroke: #000000;stroke-width: 0.75;fill-opacity: 0.05;" transform="matrix(1.0, 0.0, 0.0, 1.0, 0.0, 0.0)"><path d="M 0.0 0.0 L -0.14834045293024464 -0.28128047484684726 L -0.14834045293024464 0.6774171435894906 L 0.0 0.9586976184363378 L 0.0 0.0 Z" style="vector-effect: non-scaling-stroke;" /></g><g style="fill: #808080;stroke: #000000;stroke-width: 0.75;fill-opacity: 0.05;" transform="matrix(1.0, 0.0, 0.0, 1.0, 0.0, 0.0)"><path d="M 0.0 0.0 L -0.14834045293024464 -0.28128047484684726 L 31.49762283885528 -1.6314267541117142 L 31.645963291785524 -1.3501462792648669 L 0.0 0.0 Z" style="vector-effect: non-scaling-stroke;" /></g><g style="fill: #808080;stroke: #000000;stroke-width: 0.75;fill-opacity: 0.05;" transform="matrix(1.0, 0.0, 0.0, 1.0, 0.0, 0.0)"><path d="M 0.0 0.0 L 31.645963291785524 -1.3501462792648669 L 31.645963291785524 -0.391448660828529 L 0.0 0.9586976184363378 L 0.0 0.0 Z" style="vector-effect: non-scaling-stroke;" /></g></g></g></g></g></g><g /></g></g></g></g></g></g><g style="fill: #000000;stroke: black;stroke-width: 0.0;" transform="matrix(1.0, 0.0, 0.0, 1.0, 0.0, -1.0)"><text style="text-align:center; text-anchor:middle; dominant-baseline:middle;&#10;                      font-family:sans-serif; font-weight: bold;&#10;                      font-size:0.2px;&#10;                      vector-effect: non-scaling-stroke;" transform="translate(-5e-05, 0)">load</text></g></g></g></g></g></g></g></g></g></g></g></g><g transform="matrix(1.0, 0.0, 0.0, 1.0, 0.0, 2.799297503123548)"><g transform="matrix(0.0, -1.0, 1.0, 0.0, 0.0, 0.0)"><g /></g></g><g transform="matrix(1.0, 0.0, 0.0, 1.0, 0.0, 4.199296693295303)"><g><g transform="matrix(1.0, 0.0, 0.0, 1.0, 2.220446049250313e-16, -1.2999991901717556)"><g><g style="stroke: black;stroke-width: 7.5;" transform="matrix(1.0, 0.0, 0.0, 1.0, 0.0, 0.0)"><g /></g><g transform="matrix(1.0, 0.0, 0.0, 1.0, 0.0, 1.3999991901717557)"><g><g transform="matrix(1.0, 0.0, 0.0, 1.0, -2.059999028206107, -0.0)"><g><g transform="matrix(1.0, 0.0, 0.0, 0.38495311346554784, 0.0, 0.0)"><g transform="matrix(0.46194373615865736, 0.0, 0.0, 1.0, 0.0, 0.0)"><g><g style="fill: #ffffff;stroke: black;stroke-width: 0.0;" transform="matrix(1.0, 0.0, 0.0, 1.0, -3.3471486949328737, -3.3471486949328737)"><path d="M 0.0 0.0 L 6.694297389865747 0.0 L 6.694297389865747 6.694297389865747 L 0.0 6.694297389865747 L 0.0 0.0 Z" style="vector-effect: non-scaling-stroke;" /></g><g transform="matrix(1.0, 0.0, 0.0, 1.0, -3.2363428756485715, 0.8032746062988703)"><g transform="matrix(0.0728447235453954, 0.0, 0.0, 1.0, 0.0, 0.0)"><g transform="matrix(1.0, 0.0, 0.0, 0.5149411963096253, 0.0, 0.0)"><g><g style="fill: #f25c05;stroke: black;stroke-width: 0.0;fill-opacity: 0.4;" transform="matrix(1.0, 0.0, 0.0, 1.0, 0.0, 0.0)"><path d="M 0.0 0.0 L -0.14834045293024464 -0.28128047484684726 L -0.14834045293024464 0.6774171435894906 L 0.0 0.9586976184363378 L 0.0 0.0 Z" style="vector-effect: non-scaling-stroke;" /></g><g /><g style="fill: #f25c05;stroke: black;stroke-width: 0.0;fill-opacity: 0.4;" transform="matrix(1.0, 0.0, 0.0, 1.0, 0.0, 0.0)"><path d="M 0.0 0.0 L -0.14834045293024464 -0.28128047484684726 L 31.49762283885528 -1.6314267541117142 L 31.645963291785524 -1.3501462792648669 L 0.0 0.0 Z" style="vector-effect: non-scaling-stroke;" /></g><g /><g style="fill: #f25c05;stroke: black;stroke-width: 0.0;fill-opacity: 0.4;" transform="matrix(1.0, 0.0, 0.0, 1.0, 0.0, 0.0)"><path d="M 0.0 0.0 L 31.645963291785524 -1.3501462792648669 L 31.645963291785524 -0.391448660828529 L 0.0 0.9586976184363378 L 0.0 0.0 Z" style="vector-effect: non-scaling-stroke;" /></g><g /><g style="stroke: #000000;stroke-width: 0.075;" transform="matrix(1.0, 0.0, 0.0, 1.0, 0.0, 0.0)"><path d="M 0.0 0.0 L -0.14834045293024464 -0.28128047484684726 L -0.14834045293024464 0.6774171435894906 L -0.14834045293024464 -0.28128047484684726 Z" style="vector-effect: non-scaling-stroke;" /></g><g /><g style="stroke: #000000;stroke-width: 0.075;" transform="matrix(1.0, 0.0, 0.0, 1.0, 0.0, 0.0)"><path d="M 0.0 0.0 L -0.14834045293024464 -0.28128047484684726 L 31.49762283885528 -1.6314267541117142 L -0.14834045293024545 -0.2812804748468474 Z" style="vector-effect: non-scaling-stroke;" /></g><g /><g style="stroke: #000000;stroke-width: 0.075;" transform="matrix(1.0, 0.0, 0.0, 1.0, 0.0, 0.0)"><path d="M 0.0 0.0 L 0.0 0.9586976184363378 L -0.14834045293024464 0.6774171435894906 L 0.0 0.9586976184363378 Z" style="vector-effect: non-scaling-stroke;" /></g><g /><g style="stroke: #000000;stroke-width: 0.075;" transform="matrix(1.0, 0.0, 0.0, 1.0, 0.0, 0.0)"><path d="M 0.0 0.0 L 0.0 0.9586976184363378 L 31.645963291785524 -0.391448660828529 L 0.0 0.9586976184363378 Z" style="vector-effect: non-scaling-stroke;" /></g><g /><g style="stroke: #000000;stroke-width: 0.075;" transform="matrix(1.0, 0.0, 0.0, 1.0, 0.0, 0.0)"><path d="M 0.0 0.0 L 0.9889363528682976 -0.04219207122702709 L 0.840595899938053 -0.3234725460738743 L 0.9889363528682976 -0.04219207122702706 L 1.9778727057365952 -0.08438414245405415 L 1.8295322528063507 -0.3656646173009014 L 1.9778727057365952 -0.08438414245405412 L 2.966809058604893 -0.1265762136810812 L 2.8184686056746484 -0.40785668852792845 L 2.966809058604893 -0.12657621368108118 L 3.9557454114731905 -0.16876828490810827 L 3.807404958542946 -0.4500487597549555 L 3.9557454114731905 -0.16876828490810825 L 4.944681764341488 -0.21096035613513534 L 4.796341311411243 -0.49224083098198257 L 4.944681764341488 -0.2109603561351353 L 5.933618117209786 -0.25315242736216237 L 5.785277664279541 -0.5344329022090096 L 5.933618117209786 -0.25315242736216237 L 6.922554470078084 -0.29534449858918943 L 6.774214017147839 -0.5766249734360367 L 6.922554470078084 -0.29534449858918943 L 7.911490822946382 -0.3375365698162165 L 7.763150370016137 -0.6188170446630638 L 7.911490822946382 -0.3375365698162165 L 8.900427175814679 -0.37972864104324355 L 8.752086722884433 -0.6610091158900908 L 8.900427175814679 -0.37972864104324355 L 9.889363528682976 -0.4219207122702706 L 9.74102307575273 -0.7032011871171179 L 9.889363528682976 -0.4219207122702706 L 10.878299881551273 -0.4641127834972977 L 10.729959428621028 -0.7453932583441449 L 10.878299881551273 -0.4641127834972977 L 11.86723623441957 -0.5063048547243247 L 11.718895781489325 -0.787585329571172 L 11.86723623441957 -0.5063048547243247 L 12.856172587287867 -0.5484969259513518 L 12.707832134357622 -0.8297774007981991 L 12.856172587287867 -0.5484969259513518 L 13.845108940156164 -0.5906889971783789 L 13.696768487225919 -0.8719694720252261 L 13.845108940156164 -0.5906889971783789 L 14.834045293024461 -0.6328810684054059 L 14.685704840094216 -0.9141615432522532 L 14.834045293024461 -0.6328810684054059 L 15.822981645892758 -0.675073139632433 L 15.674641192962513 -0.9563536144792802 L 15.822981645892758 -0.675073139632433 L 16.811917998761057 -0.71726521085946 L 16.66357754583081 -0.9985456857063073 L 16.811917998761057 -0.71726521085946 L 17.800854351629354 -0.7594572820864871 L 17.65251389869911 -1.0407377569333343 L 17.800854351629354 -0.759457282086487 L 18.78979070449765 -0.8016493533135141 L 18.641450251567406 -1.0829298281603612 L 18.78979070449765 -0.801649353313514 L 19.77872705736595 -0.843841424540541 L 19.630386604435703 -1.1251218993873882 L 19.77872705736595 -0.8438414245405409 L 20.767663410234245 -0.886033495767568 L 20.619322957304 -1.167313970614415 L 20.767663410234245 -0.8860334957675678 L 21.756599763102543 -0.9282255669945949 L 21.608259310172297 -1.209506041841442 L 21.756599763102543 -0.9282255669945948 L 22.74553611597084 -0.9704176382216219 L 22.597195663040594 -1.251698113068469 L 22.74553611597084 -0.9704176382216217 L 23.734472468839137 -1.0126097094486488 L 23.58613201590889 -1.293890184295496 L 23.734472468839137 -1.0126097094486486 L 24.723408821707434 -1.0548017806756758 L 24.57506836877719 -1.336082255522523 L 24.723408821707434 -1.0548017806756755 L 25.71234517457573 -1.0969938519027027 L 25.564004721645485 -1.3782743267495499 L 25.71234517457573 -1.0969938519027025 L 26.701281527444028 -1.1391859231297297 L 26.552941074513782 -1.4204663979765768 L 26.701281527444028 -1.1391859231297294 L 27.690217880312325 -1.1813779943567566 L 27.54187742738208 -1.4626584692036038 L 27.690217880312325 -1.1813779943567564 L 28.679154233180622 -1.2235700655837836 L 28.530813780250377 -1.5048505404306307 L 28.679154233180622 -1.2235700655837833 L 29.66809058604892 -1.2657621368108105 L 29.519750133118674 -1.5470426116576577 L 29.66809058604892 -1.2657621368108103 L 30.657026938917216 -1.3079542080378375 L 30.50868648598697 -1.5892346828846846 L 30.657026938917216 -1.3079542080378372 L 31.645963291785513 -1.3501462792648644 L 31.497622838855268 -1.6314267541117116 L 31.645963291785513 -1.3501462792648642 Z" style="vector-effect: non-scaling-stroke;" /></g><g /><g style="stroke: #000000;stroke-width: 0.075;" transform="matrix(1.0, 0.0, 0.0, 1.0, 0.0, 0.0)"><path d="M 0.0 0.0 L 0.9889363528682976 -0.04219207122702709 L 0.9889363528682976 0.9165055472093108 L 0.9889363528682976 -0.04219207122702706 L 1.9778727057365952 -0.08438414245405415 L 1.9778727057365952 0.8743134759822837 L 1.9778727057365952 -0.08438414245405412 L 2.966809058604893 -0.1265762136810812 L 2.966809058604893 0.8321214047552566 L 2.966809058604893 -0.12657621368108118 L 3.9557454114731905 -0.16876828490810827 L 3.9557454114731905 0.7899293335282296 L 3.9557454114731905 -0.16876828490810825 L 4.944681764341488 -0.21096035613513534 L 4.944681764341488 0.7477372623012025 L 4.944681764341488 -0.2109603561351353 L 5.933618117209786 -0.25315242736216237 L 5.933618117209786 0.7055451910741755 L 5.933618117209786 -0.25315242736216237 L 6.922554470078084 -0.29534449858918943 L 6.922554470078084 0.6633531198471484 L 6.922554470078084 -0.29534449858918943 L 7.911490822946382 -0.3375365698162165 L 7.911490822946382 0.6211610486201213 L 7.911490822946382 -0.3375365698162165 L 8.900427175814679 -0.37972864104324355 L 8.900427175814679 0.5789689773930943 L 8.900427175814679 -0.37972864104324355 L 9.889363528682976 -0.4219207122702706 L 9.889363528682976 0.5367769061660672 L 9.889363528682976 -0.4219207122702706 L 10.878299881551273 -0.4641127834972977 L 10.878299881551273 0.49458483493904015 L 10.878299881551273 -0.4641127834972977 L 11.86723623441957 -0.5063048547243247 L 11.86723623441957 0.4523927637120131 L 11.86723623441957 -0.5063048547243247 L 12.856172587287867 -0.5484969259513518 L 12.856172587287867 0.41020069248498603 L 12.856172587287867 -0.5484969259513518 L 13.845108940156164 -0.5906889971783789 L 13.845108940156164 0.36800862125795897 L 13.845108940156164 -0.5906889971783789 L 14.834045293024461 -0.6328810684054059 L 14.834045293024461 0.3258165500309319 L 14.834045293024461 -0.6328810684054059 L 15.822981645892758 -0.675073139632433 L 15.822981645892758 0.28362447880390484 L 15.822981645892758 -0.675073139632433 L 16.811917998761057 -0.71726521085946 L 16.811917998761057 0.24143240757687778 L 16.811917998761057 -0.71726521085946 L 17.800854351629354 -0.7594572820864871 L 17.800854351629354 0.19924033634985072 L 17.800854351629354 -0.7594572820864871 L 18.78979070449765 -0.8016493533135142 L 18.78979070449765 0.15704826512282366 L 18.78979070449765 -0.8016493533135142 L 19.77872705736595 -0.8438414245405412 L 19.77872705736595 0.1148561938957966 L 19.77872705736595 -0.8438414245405412 L 20.767663410234245 -0.8860334957675683 L 20.767663410234245 0.07266412266876954 L 20.767663410234245 -0.8860334957675683 L 21.756599763102543 -0.9282255669945954 L 21.756599763102543 0.030472051441742476 L 21.756599763102543 -0.9282255669945954 L 22.74553611597084 -0.9704176382216224 L 22.74553611597084 -0.011720019785284586 L 22.74553611597084 -0.9704176382216224 L 23.734472468839137 -1.0126097094486495 L 23.734472468839137 -0.05391209101231165 L 23.734472468839137 -1.0126097094486495 L 24.723408821707434 -1.0548017806756766 L 24.723408821707434 -0.09610416223933882 L 24.723408821707434 -1.0548017806756766 L 25.71234517457573 -1.0969938519027038 L 25.71234517457573 -0.138296233466366 L 25.71234517457573 -1.0969938519027038 L 26.701281527444028 -1.139185923129731 L 26.701281527444028 -0.18048830469339316 L 26.701281527444028 -1.139185923129731 L 27.690217880312325 -1.1813779943567582 L 27.690217880312325 -0.22268037592042034 L 27.690217880312325 -1.1813779943567582 L 28.679154233180622 -1.2235700655837853 L 28.679154233180622 -0.2648724471474475 L 28.679154233180622 -1.2235700655837853 L 29.66809058604892 -1.2657621368108125 L 29.66809058604892 -0.3070645183744747 L 29.66809058604892 -1.2657621368108125 L 30.657026938917216 -1.3079542080378397 L 30.657026938917216 -0.34925658960150185 L 30.657026938917216 -1.3079542080378397 L 31.645963291785513 -1.3501462792648669 L 31.645963291785513 -0.391448660828529 L 31.645963291785513 -1.3501462792648669 Z" style="vector-effect: non-scaling-stroke;" /></g><g /><g /><g><g style="fill: #808080;stroke: #808080;stroke-width: 0.375;fill-opacity: 0.1;" transform="matrix(1.0, 0.0, 0.0, 1.0, 0.0, 0.0)"><path d="M -0.14834045293024464 -0.28128047484684726 L -0.14834045293024464 -0.28128047484684726 L -0.14834045293024464 0.6774171435894906 L -0.14834045293024464 0.6774171435894906 L -0.14834045293024464 -0.28128047484684726 Z" style="vector-effect: non-scaling-stroke;" /></g><g style="fill: #808080;stroke: #808080;stroke-width: 0.375;fill-opacity: 0.1;" transform="matrix(1.0, 0.0, 0.0, 1.0, 0.0, 0.0)"><path d="M -0.14834045293024464 -0.28128047484684726 L -0.14834045293024464 -0.28128047484684726 L 88.85593130521654 -4.078566885279285 L 88.85593130521654 -4.078566885279285 L -0.1483404529302419 -0.28128047484684693 Z" style="vector-effect: non-scaling-stroke;" /></g><g style="fill: #808080;stroke: #808080;stroke-width: 0.375;fill-opacity: 0.1;" transform="matrix(1.0, 0.0, 0.0, 1.0, 0.0, 0.0)"><path d="M -0.14834045293024464 -0.28128047484684726 L 88.85593130521654 -4.078566885279285 L 88.85593130521654 -3.1198692668429473 L -0.1483404529302419 0.6774171435894902 L -0.14834045293024464 -0.2812804748468475 Z" style="vector-effect: non-scaling-stroke;" /></g></g><g><g style="fill: #808080;stroke: #000000;stroke-width: 0.75;fill-opacity: 0.05;" transform="matrix(1.0, 0.0, 0.0, 1.0, 0.0, 0.0)"><path d="M 0.0 0.0 L -0.14834045293024464 -0.28128047484684726 L -0.14834045293024464 0.6774171435894906 L 0.0 0.9586976184363378 L 0.0 0.0 Z" style="vector-effect: non-scaling-stroke;" /></g><g style="fill: #808080;stroke: #000000;stroke-width: 0.75;fill-opacity: 0.05;" transform="matrix(1.0, 0.0, 0.0, 1.0, 0.0, 0.0)"><path d="M 0.0 0.0 L -0.14834045293024464 -0.28128047484684726 L 88.85593130521654 -4.078566885279285 L 89.00427175814679 -3.7972864104324375 L 0.0 4.440892098500626e-16 Z" style="vector-effect: non-scaling-stroke;" /></g><g style="fill: #808080;stroke: #000000;stroke-width: 0.75;fill-opacity: 0.05;" transform="matrix(1.0, 0.0, 0.0, 1.0, 0.0, 0.0)"><path d="M 0.0 0.0 L 89.00427175814679 -3.797286410432438 L 89.00427175814679 -2.8385887919961004 L 0.0 0.9586976184363376 L 0.0 -2.220446049250313e-16 Z" style="vector-effect: non-scaling-stroke;" /></g></g></g></g></g></g><g /></g></g></g><g style="stroke: black;stroke-width: 7.5;" transform="matrix(1.0, 0.0, 0.0, 1.0, 2.0461943736158656, 0.0)"><g /></g><g transform="matrix(1.0, 0.0, 0.0, 1.0, 4.106193401821972, 0.0)"><g transform="matrix(1.0, 0.0, 0.0, 0.49999190171755625, 0.0, 0.0)"><g transform="matrix(0.5999902820610675, 0.0, 0.0, 1.0, 0.0, 0.0)"><g><g style="fill: #ffffff;stroke: black;stroke-width: 0.0;" transform="matrix(1.0, 0.0, 0.0, 1.0, -2.600040492068051, -2.600040492068051)"><path d="M 0.0 0.0 L 5.200080984136102 0.0 L 5.200080984136102 5.200080984136102 L 0.0 5.200080984136102 L 0.0 0.0 Z" style="vector-effect: non-scaling-stroke;" /></g><g transform="matrix(1.0, 0.0, 0.0, 1.0, -0.40495987089787644, -2.447869678835722)"><g transform="matrix(0.9635066526679931, 0.0, 0.0, 1.0, 0.0, 0.0)"><g transform="matrix(1.0, 0.0, 0.0, 0.1612835891810558, 0.0, 0.0)"><g><g style="fill: #f25c05;stroke: black;stroke-width: 0.0;fill-opacity: 0.4;" transform="matrix(1.0, 0.0, 0.0, 1.0, 0.0, 0.0)"><path d="M 0.0 0.0 L -0.14834045293024464 -0.28128047484684726 L -0.14834045293024464 30.397043315115962 L 0.0 30.67832378996281 L 0.0 0.0 Z" style="vector-effect: non-scaling-stroke;" /></g><g /><g style="fill: #f25c05;stroke: black;stroke-width: 0.0;fill-opacity: 0.4;" transform="matrix(1.0, 0.0, 0.0, 1.0, 0.0, 0.0)"><path d="M 0.0 0.0 L -0.14834045293024464 -0.28128047484684726 L 0.840595899938053 -0.3234725460738743 L 0.9889363528682976 -0.04219207122702706 L 0.0 2.7755575615628914e-17 Z" style="vector-effect: non-scaling-stroke;" /></g><g /><g style="fill: #f25c05;stroke: black;stroke-width: 0.0;fill-opacity: 0.4;" transform="matrix(1.0, 0.0, 0.0, 1.0, 0.0, 0.0)"><path d="M 0.0 0.0 L 0.9889363528682976 -0.04219207122702709 L 0.9889363528682976 30.636131718735783 L 0.0 30.67832378996281 L 0.0 0.0 Z" style="vector-effect: non-scaling-stroke;" /></g><g /><g style="stroke: #000000;stroke-width: 0.075;" transform="matrix(1.0, 0.0, 0.0, 1.0, 0.0, 0.0)"><path d="M 0.0 0.0 L -0.14834045293024464 -0.28128047484684726 L -0.14834045293024464 30.397043315115962 L -0.14834045293024464 -0.2812804748468487 Z" style="vector-effect: non-scaling-stroke;" /></g><g /><g style="stroke: #000000;stroke-width: 0.075;" transform="matrix(1.0, 0.0, 0.0, 1.0, 0.0, 0.0)"><path d="M 0.0 0.0 L -0.14834045293024464 -0.28128047484684726 L 0.840595899938053 -0.3234725460738743 L -0.14834045293024467 -0.28128047484684726 Z" style="vector-effect: non-scaling-stroke;" /></g><g /><g style="stroke: #000000;stroke-width: 0.075;" transform="matrix(1.0, 0.0, 0.0, 1.0, 0.0, 0.0)"><path d="M 0.0 0.0 L 0.0 0.9586976184363378 L -0.14834045293024464 0.6774171435894906 L 0.0 0.9586976184363378 L 0.0 1.9173952368726757 L -0.14834045293024464 1.6361147620258283 L 0.0 1.9173952368726757 L 0.0 2.8760928553090137 L -0.14834045293024464 2.5948123804621663 L 0.0 2.8760928553090137 L 0.0 3.8347904737453513 L -0.14834045293024464 3.553509998898504 L 0.0 3.8347904737453513 L 0.0 4.793488092181689 L -0.14834045293024464 4.512207617334842 L 0.0 4.793488092181689 L 0.0 5.7521857106180265 L -0.14834045293024464 5.47090523577118 L 0.0 5.7521857106180265 L 0.0 6.710883329054364 L -0.14834045293024464 6.429602854207517 L 0.0 6.710883329054364 L 0.0 7.669580947490702 L -0.14834045293024464 7.388300472643855 L 0.0 7.669580947490702 L 0.0 8.62827856592704 L -0.14834045293024464 8.346998091080193 L 0.0 8.62827856592704 L 0.0 9.586976184363378 L -0.14834045293024464 9.305695709516531 L 0.0 9.586976184363378 L 0.0 10.545673802799715 L -0.14834045293024464 10.264393327952869 L 0.0 10.545673802799715 L 0.0 11.504371421236053 L -0.14834045293024464 11.223090946389206 L 0.0 11.504371421236053 L 0.0 12.46306903967239 L -0.14834045293024464 12.181788564825544 L 0.0 12.46306903967239 L 0.0 13.421766658108728 L -0.14834045293024464 13.140486183261881 L 0.0 13.421766658108728 L 0.0 14.380464276545066 L -0.14834045293024464 14.099183801698219 L 0.0 14.380464276545066 L 0.0 15.339161894981403 L -0.14834045293024464 15.057881420134557 L 0.0 15.339161894981403 L 0.0 16.29785951341774 L -0.14834045293024464 16.016579038570892 L 0.0 16.29785951341774 L 0.0 17.25655713185408 L -0.14834045293024464 16.97527665700723 L 0.0 17.25655713185408 L 0.0 18.21525475029042 L -0.14834045293024464 17.93397427544357 L 0.0 18.21525475029042 L 0.0 19.17395236872676 L -0.14834045293024464 18.89267189387991 L 0.0 19.17395236872676 L 0.0 20.1326499871631 L -0.14834045293024464 19.85136951231625 L 0.0 20.1326499871631 L 0.0 21.091347605599438 L -0.14834045293024464 20.81006713075259 L 0.0 21.091347605599438 L 0.0 22.050045224035777 L -0.14834045293024464 21.76876474918893 L 0.0 22.050045224035777 L 0.0 23.008742842472117 L -0.14834045293024464 22.727462367625268 L 0.0 23.008742842472117 L 0.0 23.967440460908456 L -0.14834045293024464 23.686159986061607 L 0.0 23.967440460908456 L 0.0 24.926138079344796 L -0.14834045293024464 24.644857604497947 L 0.0 24.926138079344796 L 0.0 25.884835697781135 L -0.14834045293024464 25.603555222934286 L 0.0 25.884835697781135 L 0.0 26.843533316217474 L -0.14834045293024464 26.562252841370626 L 0.0 26.843533316217474 L 0.0 27.802230934653814 L -0.14834045293024464 27.520950459806965 L 0.0 27.802230934653814 L 0.0 28.760928553090153 L -0.14834045293024464 28.479648078243304 L 0.0 28.760928553090153 L 0.0 29.719626171526492 L -0.14834045293024464 29.438345696679644 L 0.0 29.719626171526492 L 0.0 30.678323789962832 L -0.14834045293024464 30.397043315115983 L 0.0 30.678323789962832 Z" style="vector-effect: non-scaling-stroke;" /></g><g /><g style="stroke: #000000;stroke-width: 0.075;" transform="matrix(1.0, 0.0, 0.0, 1.0, 0.0, 0.0)"><path d="M 0.0 0.0 L 0.0 0.9586976184363378 L 0.9889363528682976 0.9165055472093108 L 0.0 0.9586976184363378 L 0.0 1.9173952368726757 L 0.9889363528682976 1.8752031656456485 L 0.0 1.9173952368726757 L 0.0 2.8760928553090137 L 0.9889363528682976 2.8339007840819868 L 0.0 2.8760928553090137 L 0.0 3.8347904737453513 L 0.9889363528682976 3.7925984025183244 L 0.0 3.8347904737453513 L 0.0 4.793488092181689 L 0.9889363528682976 4.751296020954662 L 0.0 4.793488092181689 L 0.0 5.7521857106180265 L 0.9889363528682976 5.709993639391 L 0.0 5.7521857106180265 L 0.0 6.710883329054364 L 0.9889363528682976 6.668691257827337 L 0.0 6.710883329054364 L 0.0 7.669580947490702 L 0.9889363528682976 7.627388876263675 L 0.0 7.669580947490702 L 0.0 8.62827856592704 L 0.9889363528682976 8.586086494700012 L 0.0 8.62827856592704 L 0.0 9.586976184363378 L 0.9889363528682976 9.54478411313635 L 0.0 9.586976184363378 L 0.0 10.545673802799715 L 0.9889363528682976 10.503481731572688 L 0.0 10.545673802799715 L 0.0 11.504371421236053 L 0.9889363528682976 11.462179350009025 L 0.0 11.504371421236053 L 0.0 12.46306903967239 L 0.9889363528682976 12.420876968445363 L 0.0 12.46306903967239 L 0.0 13.421766658108728 L 0.9889363528682976 13.3795745868817 L 0.0 13.421766658108728 L 0.0 14.380464276545066 L 0.9889363528682976 14.338272205318038 L 0.0 14.380464276545066 L 0.0 15.339161894981403 L 0.9889363528682976 15.296969823754376 L 0.0 15.339161894981403 L 0.0 16.29785951341774 L 0.9889363528682976 16.255667442190713 L 0.0 16.29785951341774 L 0.0 17.25655713185408 L 0.9889363528682976 17.214365060627053 L 0.0 17.25655713185408 L 0.0 18.21525475029042 L 0.9889363528682976 18.173062679063392 L 0.0 18.21525475029042 L 0.0 19.17395236872676 L 0.9889363528682976 19.13176029749973 L 0.0 19.17395236872676 L 0.0 20.1326499871631 L 0.9889363528682976 20.09045791593607 L 0.0 20.1326499871631 L 0.0 21.091347605599438 L 0.9889363528682976 21.04915553437241 L 0.0 21.091347605599438 L 0.0 22.050045224035777 L 0.9889363528682976 22.00785315280875 L 0.0 22.050045224035777 L 0.0 23.008742842472117 L 0.9889363528682976 22.96655077124509 L 0.0 23.008742842472117 L 0.0 23.967440460908456 L 0.9889363528682976 23.92524838968143 L 0.0 23.967440460908456 L 0.0 24.926138079344796 L 0.9889363528682976 24.883946008117768 L 0.0 24.926138079344796 L 0.0 25.884835697781135 L 0.9889363528682976 25.842643626554107 L 0.0 25.884835697781135 L 0.0 26.843533316217474 L 0.9889363528682976 26.801341244990446 L 0.0 26.843533316217474 L 0.0 27.802230934653814 L 0.9889363528682976 27.760038863426786 L 0.0 27.802230934653814 L 0.0 28.760928553090153 L 0.9889363528682976 28.718736481863125 L 0.0 28.760928553090153 L 0.0 29.719626171526492 L 0.9889363528682976 29.677434100299465 L 0.0 29.719626171526492 L 0.0 30.678323789962832 L 0.9889363528682976 30.636131718735804 L 0.0 30.678323789962832 Z" style="vector-effect: non-scaling-stroke;" /></g><g /><g style="stroke: #000000;stroke-width: 0.075;" transform="matrix(1.0, 0.0, 0.0, 1.0, 0.0, 0.0)"><path d="M 0.0 0.0 L 0.9889363528682976 -0.04219207122702709 L 0.840595899938053 -0.3234725460738743 L 0.9889363528682976 -0.04219207122702706 Z" style="vector-effect: non-scaling-stroke;" /></g><g /><g style="stroke: #000000;stroke-width: 0.075;" transform="matrix(1.0, 0.0, 0.0, 1.0, 0.0, 0.0)"><path d="M 0.0 0.0 L 0.9889363528682976 -0.04219207122702709 L 0.9889363528682976 30.636131718735783 L 0.9889363528682976 -0.04219207122702784 Z" style="vector-effect: non-scaling-stroke;" /></g><g /><g /><g><g style="fill: #808080;stroke: #808080;stroke-width: 0.375;fill-opacity: 0.1;" transform="matrix(1.0, 0.0, 0.0, 1.0, 0.0, 0.0)"><path d="M -0.14834045293024464 -0.28128047484684726 L -0.14834045293024464 -0.28128047484684726 L -0.14834045293024464 30.397043315115962 L -0.14834045293024464 30.397043315115962 L -0.14834045293024464 -0.2812804748468487 Z" style="vector-effect: non-scaling-stroke;" /></g><g style="fill: #808080;stroke: #808080;stroke-width: 0.375;fill-opacity: 0.1;" transform="matrix(1.0, 0.0, 0.0, 1.0, 0.0, 0.0)"><path d="M -0.14834045293024464 -0.28128047484684726 L -0.14834045293024464 -0.28128047484684726 L 0.840595899938053 -0.3234725460738743 L 0.840595899938053 -0.3234725460738743 L -0.14834045293024467 -0.28128047484684726 Z" style="vector-effect: non-scaling-stroke;" /></g><g style="fill: #808080;stroke: #808080;stroke-width: 0.375;fill-opacity: 0.1;" transform="matrix(1.0, 0.0, 0.0, 1.0, 0.0, 0.0)"><path d="M -0.14834045293024464 -0.28128047484684726 L 0.840595899938053 -0.3234725460738743 L 0.840595899938053 30.354851243888938 L -0.14834045293024467 30.397043315115962 L -0.14834045293024464 -0.2812804748468487 Z" style="vector-effect: non-scaling-stroke;" /></g></g><g><g style="fill: #808080;stroke: #000000;stroke-width: 0.75;fill-opacity: 0.05;" transform="matrix(1.0, 0.0, 0.0, 1.0, 0.0, 0.0)"><path d="M 0.0 0.0 L -0.14834045293024464 -0.28128047484684726 L -0.14834045293024464 30.397043315115962 L 0.0 30.67832378996281 L 0.0 0.0 Z" style="vector-effect: non-scaling-stroke;" /></g><g style="fill: #808080;stroke: #000000;stroke-width: 0.75;fill-opacity: 0.05;" transform="matrix(1.0, 0.0, 0.0, 1.0, 0.0, 0.0)"><path d="M 0.0 0.0 L -0.14834045293024464 -0.28128047484684726 L 0.840595899938053 -0.3234725460738743 L 0.9889363528682976 -0.04219207122702706 L 0.0 2.7755575615628914e-17 Z" style="vector-effect: non-scaling-stroke;" /></g><g style="fill: #808080;stroke: #000000;stroke-width: 0.75;fill-opacity: 0.05;" transform="matrix(1.0, 0.0, 0.0, 1.0, 0.0, 0.0)"><path d="M 0.0 0.0 L 0.9889363528682976 -0.04219207122702709 L 0.9889363528682976 30.636131718735783 L 0.0 30.67832378996281 L 0.0 0.0 Z" style="vector-effect: non-scaling-stroke;" /></g></g></g></g></g></g><g /></g></g></g></g></g></g><g style="fill: #000000;stroke: black;stroke-width: 0.0;" transform="matrix(1.0, 0.0, 0.0, 1.0, 0.0, -1.0)"><text style="text-align:center; text-anchor:middle; dominant-baseline:middle;&#10;                      font-family:sans-serif; font-weight: bold;&#10;                      font-size:0.2px;&#10;                      vector-effect: non-scaling-stroke;" transform="translate(-5e-05, 0)">load</text></g></g></g></g></g><g transform="matrix(1.0, 0.0, 0.0, 1.0, 0.0, 1.3999991901717557)"><g transform="matrix(0.0, -1.0, 1.0, 0.0, 0.0, 0.0)"><g /></g></g><g transform="matrix(1.0, 0.0, 0.0, 1.0, 0.0, 1.3999991901717557)"><g /></g></g></g><g transform="matrix(1.0, 0.0, 0.0, 1.0, 0.0, 5.599295883467059)"><g transform="matrix(0.0, -1.0, 1.0, 0.0, 0.0, 0.0)"><g /></g></g><g transform="matrix(1.0, 0.0, 0.0, 1.0, 0.0, 6.998723778862045)"><g transform="matrix(1.0, 0.0, 0.0, 1.0, -0.0, -1.2994278953949854)"><g><g style="stroke: black;stroke-width: 7.5;" transform="matrix(1.0, 0.0, 0.0, 1.0, 0.0, 0.0)"><g /></g><g transform="matrix(1.0, 0.0, 0.0, 1.0, 0.0, 1.3994278953949855)"><g><g transform="matrix(1.0, 0.0, 0.0, 1.0, -2.0451503847934127, -0.0)"><g><g transform="matrix(1.0, 0.0, 0.0, 0.4942789539498547, 0.0, 0.0)"><g transform="matrix(0.5931347447398256, 0.0, 0.0, 1.0, 0.0, 0.0)"><g><g style="fill: #ffffff;stroke: black;stroke-width: 0.0;" transform="matrix(1.0, 0.0, 0.0, 1.0, -2.6289363223157065, -2.6289363223157065)"><path d="M 0.0 0.0 L 5.257872644631413 0.0 L 5.257872644631413 5.257872644631413 L 0.0 5.257872644631413 L 0.0 0.0 Z" style="vector-effect: non-scaling-stroke;" /></g><g transform="matrix(1.0, 0.0, 0.0, 1.0, -2.494193482003591, -2.273547512052832)"><g transform="matrix(0.1583734426413138, 0.0, 0.0, 1.0, 0.0, 0.0)"><g transform="matrix(1.0, 0.0, 0.0, 0.1565432279562742, 0.0, 0.0)"><g><g style="fill: #d6568c;stroke: black;stroke-width: 0.0;fill-opacity: 0.4;" transform="matrix(1.0, 0.0, 0.0, 1.0, 0.0, 0.0)"><path d="M 0.0 0.0 L -0.14834045293024464 -0.28128047484684726 L -0.14834045293024464 30.397043315115962 L 0.0 30.67832378996281 L 0.0 0.0 Z" style="vector-effect: non-scaling-stroke;" /></g><g /><g style="fill: #d6568c;stroke: black;stroke-width: 0.0;fill-opacity: 0.4;" transform="matrix(1.0, 0.0, 0.0, 1.0, 0.0, 0.0)"><path d="M 0.0 0.0 L -0.14834045293024464 -0.28128047484684726 L 31.49762283885528 -1.6314267541117142 L 31.645963291785524 -1.3501462792648669 L 0.0 0.0 Z" style="vector-effect: non-scaling-stroke;" /></g><g /><g style="fill: #d6568c;stroke: black;stroke-width: 0.0;fill-opacity: 0.4;" transform="matrix(1.0, 0.0, 0.0, 1.0, 0.0, 0.0)"><path d="M 0.0 0.0 L 31.645963291785524 -1.3501462792648669 L 31.645963291785524 29.328177510697945 L 0.0 30.67832378996281 L 0.0 0.0 Z" style="vector-effect: non-scaling-stroke;" /></g><g /><g style="stroke: #000000;stroke-width: 0.075;" transform="matrix(1.0, 0.0, 0.0, 1.0, 0.0, 0.0)"><path d="M 0.0 0.0 L -0.14834045293024464 -0.28128047484684726 L -0.14834045293024464 30.397043315115962 L -0.14834045293024464 -0.2812804748468487 Z" style="vector-effect: non-scaling-stroke;" /></g><g /><g style="stroke: #000000;stroke-width: 0.075;" transform="matrix(1.0, 0.0, 0.0, 1.0, 0.0, 0.0)"><path d="M 0.0 0.0 L -0.14834045293024464 -0.28128047484684726 L 31.49762283885528 -1.6314267541117142 L -0.14834045293024545 -0.2812804748468474 Z" style="vector-effect: non-scaling-stroke;" /></g><g /><g style="stroke: #000000;stroke-width: 0.075;" transform="matrix(1.0, 0.0, 0.0, 1.0, 0.0, 0.0)"><path d="M 0.0 0.0 L 0.0 0.9586976184363378 L -0.14834045293024464 0.6774171435894906 L 0.0 0.9586976184363378 L 0.0 1.9173952368726757 L -0.14834045293024464 1.6361147620258283 L 0.0 1.9173952368726757 L 0.0 2.8760928553090137 L -0.14834045293024464 2.5948123804621663 L 0.0 2.8760928553090137 L 0.0 3.8347904737453513 L -0.14834045293024464 3.553509998898504 L 0.0 3.8347904737453513 L 0.0 4.793488092181689 L -0.14834045293024464 4.512207617334842 L 0.0 4.793488092181689 L 0.0 5.7521857106180265 L -0.14834045293024464 5.47090523577118 L 0.0 5.7521857106180265 L 0.0 6.710883329054364 L -0.14834045293024464 6.429602854207517 L 0.0 6.710883329054364 L 0.0 7.669580947490702 L -0.14834045293024464 7.388300472643855 L 0.0 7.669580947490702 L 0.0 8.62827856592704 L -0.14834045293024464 8.346998091080193 L 0.0 8.62827856592704 L 0.0 9.586976184363378 L -0.14834045293024464 9.305695709516531 L 0.0 9.586976184363378 L 0.0 10.545673802799715 L -0.14834045293024464 10.264393327952869 L 0.0 10.545673802799715 L 0.0 11.504371421236053 L -0.14834045293024464 11.223090946389206 L 0.0 11.504371421236053 L 0.0 12.46306903967239 L -0.14834045293024464 12.181788564825544 L 0.0 12.46306903967239 L 0.0 13.421766658108728 L -0.14834045293024464 13.140486183261881 L 0.0 13.421766658108728 L 0.0 14.380464276545066 L -0.14834045293024464 14.099183801698219 L 0.0 14.380464276545066 L 0.0 15.339161894981403 L -0.14834045293024464 15.057881420134557 L 0.0 15.339161894981403 L 0.0 16.29785951341774 L -0.14834045293024464 16.016579038570892 L 0.0 16.29785951341774 L 0.0 17.25655713185408 L -0.14834045293024464 16.97527665700723 L 0.0 17.25655713185408 L 0.0 18.21525475029042 L -0.14834045293024464 17.93397427544357 L 0.0 18.21525475029042 L 0.0 19.17395236872676 L -0.14834045293024464 18.89267189387991 L 0.0 19.17395236872676 L 0.0 20.1326499871631 L -0.14834045293024464 19.85136951231625 L 0.0 20.1326499871631 L 0.0 21.091347605599438 L -0.14834045293024464 20.81006713075259 L 0.0 21.091347605599438 L 0.0 22.050045224035777 L -0.14834045293024464 21.76876474918893 L 0.0 22.050045224035777 L 0.0 23.008742842472117 L -0.14834045293024464 22.727462367625268 L 0.0 23.008742842472117 L 0.0 23.967440460908456 L -0.14834045293024464 23.686159986061607 L 0.0 23.967440460908456 L 0.0 24.926138079344796 L -0.14834045293024464 24.644857604497947 L 0.0 24.926138079344796 L 0.0 25.884835697781135 L -0.14834045293024464 25.603555222934286 L 0.0 25.884835697781135 L 0.0 26.843533316217474 L -0.14834045293024464 26.562252841370626 L 0.0 26.843533316217474 L 0.0 27.802230934653814 L -0.14834045293024464 27.520950459806965 L 0.0 27.802230934653814 L 0.0 28.760928553090153 L -0.14834045293024464 28.479648078243304 L 0.0 28.760928553090153 L 0.0 29.719626171526492 L -0.14834045293024464 29.438345696679644 L 0.0 29.719626171526492 L 0.0 30.678323789962832 L -0.14834045293024464 30.397043315115983 L 0.0 30.678323789962832 Z" style="vector-effect: non-scaling-stroke;" /></g><g /><g style="stroke: #000000;stroke-width: 0.075;" transform="matrix(1.0, 0.0, 0.0, 1.0, 0.0, 0.0)"><path d="M 0.0 0.0 L 0.0 0.9586976184363378 L 31.645963291785524 -0.391448660828529 L 0.0 0.9586976184363378 L 0.0 1.9173952368726757 L 31.645963291785524 0.5672489576078088 L 0.0 1.9173952368726757 L 0.0 2.8760928553090137 L 31.645963291785524 1.5259465760441469 L 0.0 2.8760928553090137 L 0.0 3.8347904737453513 L 31.645963291785524 2.4846441944804845 L 0.0 3.8347904737453513 L 0.0 4.793488092181689 L 31.645963291785524 3.443341812916822 L 0.0 4.793488092181689 L 0.0 5.7521857106180265 L 31.645963291785524 4.40203943135316 L 0.0 5.7521857106180265 L 0.0 6.710883329054364 L 31.645963291785524 5.360737049789497 L 0.0 6.710883329054364 L 0.0 7.669580947490702 L 31.645963291785524 6.319434668225835 L 0.0 7.669580947490702 L 0.0 8.62827856592704 L 31.645963291785524 7.278132286662173 L 0.0 8.62827856592704 L 0.0 9.586976184363378 L 31.645963291785524 8.23682990509851 L 0.0 9.586976184363376 L 0.0 10.545673802799714 L 31.645963291785524 9.195527523534846 L 0.0 10.545673802799712 L 0.0 11.50437142123605 L 31.645963291785524 10.154225141971182 L 0.0 11.504371421236048 L 0.0 12.463069039672385 L 31.645963291785524 11.112922760407518 L 0.0 12.463069039672384 L 0.0 13.421766658108721 L 31.645963291785524 12.071620378843853 L 0.0 13.42176665810872 L 0.0 14.380464276545057 L 31.645963291785524 13.03031799728019 L 0.0 14.380464276545055 L 0.0 15.339161894981393 L 31.645963291785524 13.989015615716525 L 0.0 15.339161894981391 L 0.0 16.29785951341773 L 31.645963291785524 14.947713234152864 L 0.0 16.29785951341773 L 0.0 17.25655713185407 L 31.645963291785524 15.906410852589204 L 0.0 17.25655713185407 L 0.0 18.21525475029041 L 31.645963291785524 16.865108471025543 L 0.0 18.21525475029041 L 0.0 19.17395236872675 L 31.645963291785524 17.823806089461883 L 0.0 19.17395236872675 L 0.0 20.132649987163088 L 31.645963291785524 18.782503707898222 L 0.0 20.132649987163088 L 0.0 21.091347605599427 L 31.645963291785524 19.74120132633456 L 0.0 21.091347605599427 L 0.0 22.050045224035767 L 31.645963291785524 20.6998989447709 L 0.0 22.050045224035767 L 0.0 23.008742842472106 L 31.645963291785524 21.65859656320724 L 0.0 23.008742842472106 L 0.0 23.967440460908445 L 31.645963291785524 22.61729418164358 L 0.0 23.967440460908445 L 0.0 24.926138079344785 L 31.645963291785524 23.57599180007992 L 0.0 24.926138079344785 L 0.0 25.884835697781124 L 31.645963291785524 24.53468941851626 L 0.0 25.884835697781124 L 0.0 26.843533316217464 L 31.645963291785524 25.493387036952598 L 0.0 26.843533316217464 L 0.0 27.802230934653803 L 31.645963291785524 26.452084655388937 L 0.0 27.802230934653803 L 0.0 28.760928553090142 L 31.645963291785524 27.410782273825276 L 0.0 28.760928553090142 L 0.0 29.719626171526482 L 31.645963291785524 28.369479892261616 L 0.0 29.719626171526482 L 0.0 30.67832378996282 L 31.645963291785524 29.328177510697955 L 0.0 30.67832378996282 Z" style="vector-effect: non-scaling-stroke;" /></g><g /><g style="stroke: #000000;stroke-width: 0.075;" transform="matrix(1.0, 0.0, 0.0, 1.0, 0.0, 0.0)"><path d="M 0.0 0.0 L 0.9889363528682976 -0.04219207122702709 L 0.840595899938053 -0.3234725460738743 L 0.9889363528682976 -0.04219207122702706 L 1.9778727057365952 -0.08438414245405415 L 1.8295322528063507 -0.3656646173009014 L 1.9778727057365952 -0.08438414245405412 L 2.966809058604893 -0.1265762136810812 L 2.8184686056746484 -0.40785668852792845 L 2.966809058604893 -0.12657621368108118 L 3.9557454114731905 -0.16876828490810827 L 3.807404958542946 -0.4500487597549555 L 3.9557454114731905 -0.16876828490810825 L 4.944681764341488 -0.21096035613513534 L 4.796341311411243 -0.49224083098198257 L 4.944681764341488 -0.2109603561351353 L 5.933618117209786 -0.25315242736216237 L 5.785277664279541 -0.5344329022090096 L 5.933618117209786 -0.25315242736216237 L 6.922554470078084 -0.29534449858918943 L 6.774214017147839 -0.5766249734360367 L 6.922554470078084 -0.29534449858918943 L 7.911490822946382 -0.3375365698162165 L 7.763150370016137 -0.6188170446630638 L 7.911490822946382 -0.3375365698162165 L 8.900427175814679 -0.37972864104324355 L 8.752086722884433 -0.6610091158900908 L 8.900427175814679 -0.37972864104324355 L 9.889363528682976 -0.4219207122702706 L 9.74102307575273 -0.7032011871171179 L 9.889363528682976 -0.4219207122702706 L 10.878299881551273 -0.4641127834972977 L 10.729959428621028 -0.7453932583441449 L 10.878299881551273 -0.4641127834972977 L 11.86723623441957 -0.5063048547243247 L 11.718895781489325 -0.787585329571172 L 11.86723623441957 -0.5063048547243247 L 12.856172587287867 -0.5484969259513518 L 12.707832134357622 -0.8297774007981991 L 12.856172587287867 -0.5484969259513518 L 13.845108940156164 -0.5906889971783789 L 13.696768487225919 -0.8719694720252261 L 13.845108940156164 -0.5906889971783789 L 14.834045293024461 -0.6328810684054059 L 14.685704840094216 -0.9141615432522532 L 14.834045293024461 -0.6328810684054059 L 15.822981645892758 -0.675073139632433 L 15.674641192962513 -0.9563536144792802 L 15.822981645892758 -0.675073139632433 L 16.811917998761057 -0.71726521085946 L 16.66357754583081 -0.9985456857063073 L 16.811917998761057 -0.71726521085946 L 17.800854351629354 -0.7594572820864871 L 17.65251389869911 -1.0407377569333343 L 17.800854351629354 -0.759457282086487 L 18.78979070449765 -0.8016493533135141 L 18.641450251567406 -1.0829298281603612 L 18.78979070449765 -0.801649353313514 L 19.77872705736595 -0.843841424540541 L 19.630386604435703 -1.1251218993873882 L 19.77872705736595 -0.8438414245405409 L 20.767663410234245 -0.886033495767568 L 20.619322957304 -1.167313970614415 L 20.767663410234245 -0.8860334957675678 L 21.756599763102543 -0.9282255669945949 L 21.608259310172297 -1.209506041841442 L 21.756599763102543 -0.9282255669945948 L 22.74553611597084 -0.9704176382216219 L 22.597195663040594 -1.251698113068469 L 22.74553611597084 -0.9704176382216217 L 23.734472468839137 -1.0126097094486488 L 23.58613201590889 -1.293890184295496 L 23.734472468839137 -1.0126097094486486 L 24.723408821707434 -1.0548017806756758 L 24.57506836877719 -1.336082255522523 L 24.723408821707434 -1.0548017806756755 L 25.71234517457573 -1.0969938519027027 L 25.564004721645485 -1.3782743267495499 L 25.71234517457573 -1.0969938519027025 L 26.701281527444028 -1.1391859231297297 L 26.552941074513782 -1.4204663979765768 L 26.701281527444028 -1.1391859231297294 L 27.690217880312325 -1.1813779943567566 L 27.54187742738208 -1.4626584692036038 L 27.690217880312325 -1.1813779943567564 L 28.679154233180622 -1.2235700655837836 L 28.530813780250377 -1.5048505404306307 L 28.679154233180622 -1.2235700655837833 L 29.66809058604892 -1.2657621368108105 L 29.519750133118674 -1.5470426116576577 L 29.66809058604892 -1.2657621368108103 L 30.657026938917216 -1.3079542080378375 L 30.50868648598697 -1.5892346828846846 L 30.657026938917216 -1.3079542080378372 L 31.645963291785513 -1.3501462792648644 L 31.497622838855268 -1.6314267541117116 L 31.645963291785513 -1.3501462792648642 Z" style="vector-effect: non-scaling-stroke;" /></g><g /><g style="stroke: #000000;stroke-width: 0.075;" transform="matrix(1.0, 0.0, 0.0, 1.0, 0.0, 0.0)"><path d="M 0.0 0.0 L 0.9889363528682976 -0.04219207122702709 L 0.9889363528682976 30.636131718735783 L 0.9889363528682976 -0.04219207122702784 L 1.9778727057365952 -0.08438414245405493 L 1.9778727057365952 30.593939647508755 L 1.9778727057365952 -0.08438414245405568 L 2.966809058604893 -0.12657621368108277 L 2.966809058604893 30.551747576281727 L 2.966809058604893 -0.12657621368108352 L 3.9557454114731905 -0.1687682849081106 L 3.9557454114731905 30.5095555050547 L 3.9557454114731905 -0.16876828490811135 L 4.944681764341488 -0.21096035613513844 L 4.944681764341488 30.46736343382767 L 4.944681764341488 -0.2109603561351392 L 5.933618117209786 -0.25315242736216625 L 5.933618117209786 30.425171362600643 L 5.933618117209786 -0.25315242736216703 L 6.922554470078084 -0.2953444985891941 L 6.922554470078084 30.382979291373616 L 6.922554470078084 -0.29534449858919487 L 7.911490822946382 -0.33753656981622193 L 7.911490822946382 30.340787220146588 L 7.911490822946382 -0.3375365698162227 L 8.900427175814679 -0.37972864104324977 L 8.900427175814679 30.29859514891956 L 8.900427175814679 -0.37972864104325055 L 9.889363528682976 -0.4219207122702776 L 9.889363528682976 30.256403077692532 L 9.889363528682976 -0.4219207122702784 L 10.878299881551273 -0.46411278349730545 L 10.878299881551273 30.214211006465504 L 10.878299881551273 -0.4641127834973062 L 11.86723623441957 -0.5063048547243333 L 11.86723623441957 30.172018935238476 L 11.86723623441957 -0.5063048547243341 L 12.856172587287867 -0.5484969259513611 L 12.856172587287867 30.12982686401145 L 12.856172587287867 -0.5484969259513619 L 13.845108940156164 -0.590688997178389 L 13.845108940156164 30.08763479278442 L 13.845108940156164 -0.5906889971783897 L 14.834045293024461 -0.6328810684054168 L 14.834045293024461 30.045442721557393 L 14.834045293024461 -0.6328810684054176 L 15.822981645892758 -0.6750731396324446 L 15.822981645892758 30.003250650330365 L 15.822981645892758 -0.6750731396324454 L 16.811917998761057 -0.7172652108594725 L 16.811917998761057 29.961058579103337 L 16.811917998761057 -0.7172652108594733 L 17.800854351629354 -0.7594572820865003 L 17.800854351629354 29.91886650787631 L 17.800854351629354 -0.7594572820865011 L 18.78979070449765 -0.8016493533135282 L 18.78979070449765 29.87667443664928 L 18.78979070449765 -0.8016493533135289 L 19.77872705736595 -0.843841424540556 L 19.77872705736595 29.834482365422254 L 19.77872705736595 -0.8438414245405568 L 20.767663410234245 -0.8860334957675838 L 20.767663410234245 29.792290294195226 L 20.767663410234245 -0.8860334957675846 L 21.756599763102543 -0.9282255669946117 L 21.756599763102543 29.750098222968198 L 21.756599763102543 -0.9282255669946124 L 22.74553611597084 -0.9704176382216395 L 22.74553611597084 29.70790615174117 L 22.74553611597084 -0.9704176382216403 L 23.734472468839137 -1.0126097094486675 L 23.734472468839137 29.665714080514142 L 23.734472468839137 -1.0126097094486681 L 24.723408821707434 -1.0548017806756953 L 24.723408821707434 29.623522009287115 L 24.723408821707434 -1.054801780675696 L 25.71234517457573 -1.0969938519027231 L 25.71234517457573 29.581329938060087 L 25.71234517457573 -1.0969938519027238 L 26.701281527444028 -1.139185923129751 L 26.701281527444028 29.53913786683306 L 26.701281527444028 -1.1391859231297516 L 27.690217880312325 -1.1813779943567788 L 27.690217880312325 29.49694579560603 L 27.690217880312325 -1.1813779943567795 L 28.679154233180622 -1.2235700655838067 L 28.679154233180622 29.454753724379003 L 28.679154233180622 -1.2235700655838073 L 29.66809058604892 -1.2657621368108345 L 29.66809058604892 29.412561653151975 L 29.66809058604892 -1.2657621368108352 L 30.657026938917216 -1.3079542080378623 L 30.657026938917216 29.370369581924948 L 30.657026938917216 -1.307954208037863 L 31.645963291785513 -1.3501462792648902 L 31.645963291785513 29.32817751069792 L 31.645963291785513 -1.3501462792648908 Z" style="vector-effect: non-scaling-stroke;" /></g><g /><g /><g><g style="fill: #808080;stroke: #808080;stroke-width: 0.375;fill-opacity: 0.1;" transform="matrix(1.0, 0.0, 0.0, 1.0, 0.0, 0.0)"><path d="M -0.14834045293024464 -0.28128047484684726 L -0.14834045293024464 -0.28128047484684726 L -0.14834045293024464 30.397043315115962 L -0.14834045293024464 30.397043315115962 L -0.14834045293024464 -0.2812804748468487 Z" style="vector-effect: non-scaling-stroke;" /></g><g style="fill: #808080;stroke: #808080;stroke-width: 0.375;fill-opacity: 0.1;" transform="matrix(1.0, 0.0, 0.0, 1.0, 0.0, 0.0)"><path d="M -0.14834045293024464 -0.28128047484684726 L -0.14834045293024464 -0.28128047484684726 L 31.49762283885528 -1.6314267541117142 L 31.49762283885528 -1.6314267541117142 L -0.14834045293024545 -0.2812804748468474 Z" style="vector-effect: non-scaling-stroke;" /></g><g style="fill: #808080;stroke: #808080;stroke-width: 0.375;fill-opacity: 0.1;" transform="matrix(1.0, 0.0, 0.0, 1.0, 0.0, 0.0)"><path d="M -0.14834045293024464 -0.28128047484684726 L 31.49762283885528 -1.6314267541117142 L 31.49762283885528 29.046897035851096 L -0.14834045293024545 30.397043315115962 L -0.14834045293024464 -0.2812804748468487 Z" style="vector-effect: non-scaling-stroke;" /></g></g><g><g style="fill: #808080;stroke: #000000;stroke-width: 0.75;fill-opacity: 0.05;" transform="matrix(1.0, 0.0, 0.0, 1.0, 0.0, 0.0)"><path d="M 0.0 0.0 L -0.14834045293024464 -0.28128047484684726 L -0.14834045293024464 30.397043315115962 L 0.0 30.67832378996281 L 0.0 0.0 Z" style="vector-effect: non-scaling-stroke;" /></g><g style="fill: #808080;stroke: #000000;stroke-width: 0.75;fill-opacity: 0.05;" transform="matrix(1.0, 0.0, 0.0, 1.0, 0.0, 0.0)"><path d="M 0.0 0.0 L -0.14834045293024464 -0.28128047484684726 L 31.49762283885528 -1.6314267541117142 L 31.645963291785524 -1.3501462792648669 L 0.0 0.0 Z" style="vector-effect: non-scaling-stroke;" /></g><g style="fill: #808080;stroke: #000000;stroke-width: 0.75;fill-opacity: 0.05;" transform="matrix(1.0, 0.0, 0.0, 1.0, 0.0, 0.0)"><path d="M 0.0 0.0 L 31.645963291785524 -1.3501462792648669 L 31.645963291785524 29.328177510697945 L 0.0 30.67832378996281 L 0.0 0.0 Z" style="vector-effect: non-scaling-stroke;" /></g></g></g></g></g></g><g /></g></g></g><g style="stroke: black;stroke-width: 7.5;" transform="matrix(1.0, 0.0, 0.0, 1.0, 2.0593134744739823, 0.0)"><g /></g><g transform="matrix(1.0, 0.0, 0.0, 1.0, 4.104463859267395, 0.0)"><g transform="matrix(1.0, 0.0, 0.0, 0.37625320661177214, 0.0, 0.0)"><g transform="matrix(0.4515038479341265, 0.0, 0.0, 1.0, 0.0, 0.0)"><g><g style="fill: #ffffff;stroke: black;stroke-width: 0.0;" transform="matrix(1.0, 0.0, 0.0, 1.0, -3.4222308223137157, -3.4222308223137157)"><path d="M 0.0 0.0 L 6.844461644627431 0.0 L 6.844461644627431 6.844461644627431 L 0.0 6.844461644627431 L 0.0 0.0 Z" style="vector-effect: non-scaling-stroke;" /></g><g transform="matrix(1.0, 0.0, 0.0, 1.0, -3.312279057494004, -2.9368494685541218)"><g transform="matrix(0.06708732933686862, 0.0, 0.0, 1.0, 0.0, 0.0)"><g transform="matrix(1.0, 0.0, 0.0, 0.07182115294284566, 0.0, 0.0)"><g><g style="fill: #d6568c;stroke: black;stroke-width: 0.0;fill-opacity: 0.4;" transform="matrix(1.0, 0.0, 0.0, 1.0, 0.0, 0.0)"><path d="M 0.0 0.0 L -0.14834045293024464 -0.28128047484684726 L -0.14834045293024464 30.397043315115962 L 0.0 30.67832378996281 L 0.0 0.0 Z" style="vector-effect: non-scaling-stroke;" /></g><g /><g style="fill: #d6568c;stroke: black;stroke-width: 0.0;fill-opacity: 0.4;" transform="matrix(1.0, 0.0, 0.0, 1.0, 0.0, 0.0)"><path d="M 0.0 0.0 L -0.14834045293024464 -0.28128047484684726 L 31.49762283885528 -1.6314267541117142 L 31.645963291785524 -1.3501462792648669 L 0.0 0.0 Z" style="vector-effect: non-scaling-stroke;" /></g><g /><g style="fill: #d6568c;stroke: black;stroke-width: 0.0;fill-opacity: 0.4;" transform="matrix(1.0, 0.0, 0.0, 1.0, 0.0, 0.0)"><path d="M 0.0 0.0 L 31.645963291785524 -1.3501462792648669 L 31.645963291785524 29.328177510697945 L 0.0 30.67832378996281 L 0.0 0.0 Z" style="vector-effect: non-scaling-stroke;" /></g><g /><g style="stroke: #000000;stroke-width: 0.075;" transform="matrix(1.0, 0.0, 0.0, 1.0, 0.0, 0.0)"><path d="M 0.0 0.0 L -0.14834045293024464 -0.28128047484684726 L -0.14834045293024464 30.397043315115962 L -0.14834045293024464 -0.2812804748468487 Z" style="vector-effect: non-scaling-stroke;" /></g><g /><g style="stroke: #000000;stroke-width: 0.075;" transform="matrix(1.0, 0.0, 0.0, 1.0, 0.0, 0.0)"><path d="M 0.0 0.0 L -0.14834045293024464 -0.28128047484684726 L 31.49762283885528 -1.6314267541117142 L -0.14834045293024545 -0.2812804748468474 Z" style="vector-effect: non-scaling-stroke;" /></g><g /><g style="stroke: #000000;stroke-width: 0.075;" transform="matrix(1.0, 0.0, 0.0, 1.0, 0.0, 0.0)"><path d="M 0.0 0.0 L 0.0 0.9586976184363378 L -0.14834045293024464 0.6774171435894906 L 0.0 0.9586976184363378 L 0.0 1.9173952368726757 L -0.14834045293024464 1.6361147620258283 L 0.0 1.9173952368726757 L 0.0 2.8760928553090137 L -0.14834045293024464 2.5948123804621663 L 0.0 2.8760928553090137 L 0.0 3.8347904737453513 L -0.14834045293024464 3.553509998898504 L 0.0 3.8347904737453513 L 0.0 4.793488092181689 L -0.14834045293024464 4.512207617334842 L 0.0 4.793488092181689 L 0.0 5.7521857106180265 L -0.14834045293024464 5.47090523577118 L 0.0 5.7521857106180265 L 0.0 6.710883329054364 L -0.14834045293024464 6.429602854207517 L 0.0 6.710883329054364 L 0.0 7.669580947490702 L -0.14834045293024464 7.388300472643855 L 0.0 7.669580947490702 L 0.0 8.62827856592704 L -0.14834045293024464 8.346998091080193 L 0.0 8.62827856592704 L 0.0 9.586976184363378 L -0.14834045293024464 9.305695709516531 L 0.0 9.586976184363378 L 0.0 10.545673802799715 L -0.14834045293024464 10.264393327952869 L 0.0 10.545673802799715 L 0.0 11.504371421236053 L -0.14834045293024464 11.223090946389206 L 0.0 11.504371421236053 L 0.0 12.46306903967239 L -0.14834045293024464 12.181788564825544 L 0.0 12.46306903967239 L 0.0 13.421766658108728 L -0.14834045293024464 13.140486183261881 L 0.0 13.421766658108728 L 0.0 14.380464276545066 L -0.14834045293024464 14.099183801698219 L 0.0 14.380464276545066 L 0.0 15.339161894981403 L -0.14834045293024464 15.057881420134557 L 0.0 15.339161894981403 L 0.0 16.29785951341774 L -0.14834045293024464 16.016579038570892 L 0.0 16.29785951341774 L 0.0 17.25655713185408 L -0.14834045293024464 16.97527665700723 L 0.0 17.25655713185408 L 0.0 18.21525475029042 L -0.14834045293024464 17.93397427544357 L 0.0 18.21525475029042 L 0.0 19.17395236872676 L -0.14834045293024464 18.89267189387991 L 0.0 19.17395236872676 L 0.0 20.1326499871631 L -0.14834045293024464 19.85136951231625 L 0.0 20.1326499871631 L 0.0 21.091347605599438 L -0.14834045293024464 20.81006713075259 L 0.0 21.091347605599438 L 0.0 22.050045224035777 L -0.14834045293024464 21.76876474918893 L 0.0 22.050045224035777 L 0.0 23.008742842472117 L -0.14834045293024464 22.727462367625268 L 0.0 23.008742842472117 L 0.0 23.967440460908456 L -0.14834045293024464 23.686159986061607 L 0.0 23.967440460908456 L 0.0 24.926138079344796 L -0.14834045293024464 24.644857604497947 L 0.0 24.926138079344796 L 0.0 25.884835697781135 L -0.14834045293024464 25.603555222934286 L 0.0 25.884835697781135 L 0.0 26.843533316217474 L -0.14834045293024464 26.562252841370626 L 0.0 26.843533316217474 L 0.0 27.802230934653814 L -0.14834045293024464 27.520950459806965 L 0.0 27.802230934653814 L 0.0 28.760928553090153 L -0.14834045293024464 28.479648078243304 L 0.0 28.760928553090153 L 0.0 29.719626171526492 L -0.14834045293024464 29.438345696679644 L 0.0 29.719626171526492 L 0.0 30.678323789962832 L -0.14834045293024464 30.397043315115983 L 0.0 30.678323789962832 Z" style="vector-effect: non-scaling-stroke;" /></g><g /><g style="stroke: #000000;stroke-width: 0.075;" transform="matrix(1.0, 0.0, 0.0, 1.0, 0.0, 0.0)"><path d="M 0.0 0.0 L 0.0 0.9586976184363378 L 31.645963291785524 -0.391448660828529 L 0.0 0.9586976184363378 L 0.0 1.9173952368726757 L 31.645963291785524 0.5672489576078088 L 0.0 1.9173952368726757 L 0.0 2.8760928553090137 L 31.645963291785524 1.5259465760441469 L 0.0 2.8760928553090137 L 0.0 3.8347904737453513 L 31.645963291785524 2.4846441944804845 L 0.0 3.8347904737453513 L 0.0 4.793488092181689 L 31.645963291785524 3.443341812916822 L 0.0 4.793488092181689 L 0.0 5.7521857106180265 L 31.645963291785524 4.40203943135316 L 0.0 5.7521857106180265 L 0.0 6.710883329054364 L 31.645963291785524 5.360737049789497 L 0.0 6.710883329054364 L 0.0 7.669580947490702 L 31.645963291785524 6.319434668225835 L 0.0 7.669580947490702 L 0.0 8.62827856592704 L 31.645963291785524 7.278132286662173 L 0.0 8.62827856592704 L 0.0 9.586976184363378 L 31.645963291785524 8.23682990509851 L 0.0 9.586976184363376 L 0.0 10.545673802799714 L 31.645963291785524 9.195527523534846 L 0.0 10.545673802799712 L 0.0 11.50437142123605 L 31.645963291785524 10.154225141971182 L 0.0 11.504371421236048 L 0.0 12.463069039672385 L 31.645963291785524 11.112922760407518 L 0.0 12.463069039672384 L 0.0 13.421766658108721 L 31.645963291785524 12.071620378843853 L 0.0 13.42176665810872 L 0.0 14.380464276545057 L 31.645963291785524 13.03031799728019 L 0.0 14.380464276545055 L 0.0 15.339161894981393 L 31.645963291785524 13.989015615716525 L 0.0 15.339161894981391 L 0.0 16.29785951341773 L 31.645963291785524 14.947713234152864 L 0.0 16.29785951341773 L 0.0 17.25655713185407 L 31.645963291785524 15.906410852589204 L 0.0 17.25655713185407 L 0.0 18.21525475029041 L 31.645963291785524 16.865108471025543 L 0.0 18.21525475029041 L 0.0 19.17395236872675 L 31.645963291785524 17.823806089461883 L 0.0 19.17395236872675 L 0.0 20.132649987163088 L 31.645963291785524 18.782503707898222 L 0.0 20.132649987163088 L 0.0 21.091347605599427 L 31.645963291785524 19.74120132633456 L 0.0 21.091347605599427 L 0.0 22.050045224035767 L 31.645963291785524 20.6998989447709 L 0.0 22.050045224035767 L 0.0 23.008742842472106 L 31.645963291785524 21.65859656320724 L 0.0 23.008742842472106 L 0.0 23.967440460908445 L 31.645963291785524 22.61729418164358 L 0.0 23.967440460908445 L 0.0 24.926138079344785 L 31.645963291785524 23.57599180007992 L 0.0 24.926138079344785 L 0.0 25.884835697781124 L 31.645963291785524 24.53468941851626 L 0.0 25.884835697781124 L 0.0 26.843533316217464 L 31.645963291785524 25.493387036952598 L 0.0 26.843533316217464 L 0.0 27.802230934653803 L 31.645963291785524 26.452084655388937 L 0.0 27.802230934653803 L 0.0 28.760928553090142 L 31.645963291785524 27.410782273825276 L 0.0 28.760928553090142 L 0.0 29.719626171526482 L 31.645963291785524 28.369479892261616 L 0.0 29.719626171526482 L 0.0 30.67832378996282 L 31.645963291785524 29.328177510697955 L 0.0 30.67832378996282 Z" style="vector-effect: non-scaling-stroke;" /></g><g /><g style="stroke: #000000;stroke-width: 0.075;" transform="matrix(1.0, 0.0, 0.0, 1.0, 0.0, 0.0)"><path d="M 0.0 0.0 L 0.9889363528682976 -0.04219207122702709 L 0.840595899938053 -0.3234725460738743 L 0.9889363528682976 -0.04219207122702706 L 1.9778727057365952 -0.08438414245405415 L 1.8295322528063507 -0.3656646173009014 L 1.9778727057365952 -0.08438414245405412 L 2.966809058604893 -0.1265762136810812 L 2.8184686056746484 -0.40785668852792845 L 2.966809058604893 -0.12657621368108118 L 3.9557454114731905 -0.16876828490810827 L 3.807404958542946 -0.4500487597549555 L 3.9557454114731905 -0.16876828490810825 L 4.944681764341488 -0.21096035613513534 L 4.796341311411243 -0.49224083098198257 L 4.944681764341488 -0.2109603561351353 L 5.933618117209786 -0.25315242736216237 L 5.785277664279541 -0.5344329022090096 L 5.933618117209786 -0.25315242736216237 L 6.922554470078084 -0.29534449858918943 L 6.774214017147839 -0.5766249734360367 L 6.922554470078084 -0.29534449858918943 L 7.911490822946382 -0.3375365698162165 L 7.763150370016137 -0.6188170446630638 L 7.911490822946382 -0.3375365698162165 L 8.900427175814679 -0.37972864104324355 L 8.752086722884433 -0.6610091158900908 L 8.900427175814679 -0.37972864104324355 L 9.889363528682976 -0.4219207122702706 L 9.74102307575273 -0.7032011871171179 L 9.889363528682976 -0.4219207122702706 L 10.878299881551273 -0.4641127834972977 L 10.729959428621028 -0.7453932583441449 L 10.878299881551273 -0.4641127834972977 L 11.86723623441957 -0.5063048547243247 L 11.718895781489325 -0.787585329571172 L 11.86723623441957 -0.5063048547243247 L 12.856172587287867 -0.5484969259513518 L 12.707832134357622 -0.8297774007981991 L 12.856172587287867 -0.5484969259513518 L 13.845108940156164 -0.5906889971783789 L 13.696768487225919 -0.8719694720252261 L 13.845108940156164 -0.5906889971783789 L 14.834045293024461 -0.6328810684054059 L 14.685704840094216 -0.9141615432522532 L 14.834045293024461 -0.6328810684054059 L 15.822981645892758 -0.675073139632433 L 15.674641192962513 -0.9563536144792802 L 15.822981645892758 -0.675073139632433 L 16.811917998761057 -0.71726521085946 L 16.66357754583081 -0.9985456857063073 L 16.811917998761057 -0.71726521085946 L 17.800854351629354 -0.7594572820864871 L 17.65251389869911 -1.0407377569333343 L 17.800854351629354 -0.759457282086487 L 18.78979070449765 -0.8016493533135141 L 18.641450251567406 -1.0829298281603612 L 18.78979070449765 -0.801649353313514 L 19.77872705736595 -0.843841424540541 L 19.630386604435703 -1.1251218993873882 L 19.77872705736595 -0.8438414245405409 L 20.767663410234245 -0.886033495767568 L 20.619322957304 -1.167313970614415 L 20.767663410234245 -0.8860334957675678 L 21.756599763102543 -0.9282255669945949 L 21.608259310172297 -1.209506041841442 L 21.756599763102543 -0.9282255669945948 L 22.74553611597084 -0.9704176382216219 L 22.597195663040594 -1.251698113068469 L 22.74553611597084 -0.9704176382216217 L 23.734472468839137 -1.0126097094486488 L 23.58613201590889 -1.293890184295496 L 23.734472468839137 -1.0126097094486486 L 24.723408821707434 -1.0548017806756758 L 24.57506836877719 -1.336082255522523 L 24.723408821707434 -1.0548017806756755 L 25.71234517457573 -1.0969938519027027 L 25.564004721645485 -1.3782743267495499 L 25.71234517457573 -1.0969938519027025 L 26.701281527444028 -1.1391859231297297 L 26.552941074513782 -1.4204663979765768 L 26.701281527444028 -1.1391859231297294 L 27.690217880312325 -1.1813779943567566 L 27.54187742738208 -1.4626584692036038 L 27.690217880312325 -1.1813779943567564 L 28.679154233180622 -1.2235700655837836 L 28.530813780250377 -1.5048505404306307 L 28.679154233180622 -1.2235700655837833 L 29.66809058604892 -1.2657621368108105 L 29.519750133118674 -1.5470426116576577 L 29.66809058604892 -1.2657621368108103 L 30.657026938917216 -1.3079542080378375 L 30.50868648598697 -1.5892346828846846 L 30.657026938917216 -1.3079542080378372 L 31.645963291785513 -1.3501462792648644 L 31.497622838855268 -1.6314267541117116 L 31.645963291785513 -1.3501462792648642 Z" style="vector-effect: non-scaling-stroke;" /></g><g /><g style="stroke: #000000;stroke-width: 0.075;" transform="matrix(1.0, 0.0, 0.0, 1.0, 0.0, 0.0)"><path d="M 0.0 0.0 L 0.9889363528682976 -0.04219207122702709 L 0.9889363528682976 30.636131718735783 L 0.9889363528682976 -0.04219207122702784 L 1.9778727057365952 -0.08438414245405493 L 1.9778727057365952 30.593939647508755 L 1.9778727057365952 -0.08438414245405568 L 2.966809058604893 -0.12657621368108277 L 2.966809058604893 30.551747576281727 L 2.966809058604893 -0.12657621368108352 L 3.9557454114731905 -0.1687682849081106 L 3.9557454114731905 30.5095555050547 L 3.9557454114731905 -0.16876828490811135 L 4.944681764341488 -0.21096035613513844 L 4.944681764341488 30.46736343382767 L 4.944681764341488 -0.2109603561351392 L 5.933618117209786 -0.25315242736216625 L 5.933618117209786 30.425171362600643 L 5.933618117209786 -0.25315242736216703 L 6.922554470078084 -0.2953444985891941 L 6.922554470078084 30.382979291373616 L 6.922554470078084 -0.29534449858919487 L 7.911490822946382 -0.33753656981622193 L 7.911490822946382 30.340787220146588 L 7.911490822946382 -0.3375365698162227 L 8.900427175814679 -0.37972864104324977 L 8.900427175814679 30.29859514891956 L 8.900427175814679 -0.37972864104325055 L 9.889363528682976 -0.4219207122702776 L 9.889363528682976 30.256403077692532 L 9.889363528682976 -0.4219207122702784 L 10.878299881551273 -0.46411278349730545 L 10.878299881551273 30.214211006465504 L 10.878299881551273 -0.4641127834973062 L 11.86723623441957 -0.5063048547243333 L 11.86723623441957 30.172018935238476 L 11.86723623441957 -0.5063048547243341 L 12.856172587287867 -0.5484969259513611 L 12.856172587287867 30.12982686401145 L 12.856172587287867 -0.5484969259513619 L 13.845108940156164 -0.590688997178389 L 13.845108940156164 30.08763479278442 L 13.845108940156164 -0.5906889971783897 L 14.834045293024461 -0.6328810684054168 L 14.834045293024461 30.045442721557393 L 14.834045293024461 -0.6328810684054176 L 15.822981645892758 -0.6750731396324446 L 15.822981645892758 30.003250650330365 L 15.822981645892758 -0.6750731396324454 L 16.811917998761057 -0.7172652108594725 L 16.811917998761057 29.961058579103337 L 16.811917998761057 -0.7172652108594733 L 17.800854351629354 -0.7594572820865003 L 17.800854351629354 29.91886650787631 L 17.800854351629354 -0.7594572820865011 L 18.78979070449765 -0.8016493533135282 L 18.78979070449765 29.87667443664928 L 18.78979070449765 -0.8016493533135289 L 19.77872705736595 -0.843841424540556 L 19.77872705736595 29.834482365422254 L 19.77872705736595 -0.8438414245405568 L 20.767663410234245 -0.8860334957675838 L 20.767663410234245 29.792290294195226 L 20.767663410234245 -0.8860334957675846 L 21.756599763102543 -0.9282255669946117 L 21.756599763102543 29.750098222968198 L 21.756599763102543 -0.9282255669946124 L 22.74553611597084 -0.9704176382216395 L 22.74553611597084 29.70790615174117 L 22.74553611597084 -0.9704176382216403 L 23.734472468839137 -1.0126097094486675 L 23.734472468839137 29.665714080514142 L 23.734472468839137 -1.0126097094486681 L 24.723408821707434 -1.0548017806756953 L 24.723408821707434 29.623522009287115 L 24.723408821707434 -1.054801780675696 L 25.71234517457573 -1.0969938519027231 L 25.71234517457573 29.581329938060087 L 25.71234517457573 -1.0969938519027238 L 26.701281527444028 -1.139185923129751 L 26.701281527444028 29.53913786683306 L 26.701281527444028 -1.1391859231297516 L 27.690217880312325 -1.1813779943567788 L 27.690217880312325 29.49694579560603 L 27.690217880312325 -1.1813779943567795 L 28.679154233180622 -1.2235700655838067 L 28.679154233180622 29.454753724379003 L 28.679154233180622 -1.2235700655838073 L 29.66809058604892 -1.2657621368108345 L 29.66809058604892 29.412561653151975 L 29.66809058604892 -1.2657621368108352 L 30.657026938917216 -1.3079542080378623 L 30.657026938917216 29.370369581924948 L 30.657026938917216 -1.307954208037863 L 31.645963291785513 -1.3501462792648902 L 31.645963291785513 29.32817751069792 L 31.645963291785513 -1.3501462792648908 Z" style="vector-effect: non-scaling-stroke;" /></g><g /><g /><g><g style="fill: #808080;stroke: #808080;stroke-width: 0.375;fill-opacity: 0.1;" transform="matrix(1.0, 0.0, 0.0, 1.0, 0.0, 0.0)"><path d="M -0.14834045293024464 -0.28128047484684726 L -0.14834045293024464 -0.28128047484684726 L -0.14834045293024464 86.00150518442355 L -0.14834045293024464 86.00150518442355 L -0.14834045293024464 -0.28128047484685226 Z" style="vector-effect: non-scaling-stroke;" /></g><g style="fill: #808080;stroke: #808080;stroke-width: 0.375;fill-opacity: 0.1;" transform="matrix(1.0, 0.0, 0.0, 1.0, 0.0, 0.0)"><path d="M -0.14834045293024464 -0.28128047484684726 L -0.14834045293024464 -0.28128047484684726 L 98.74529483389952 -4.500487597549556 L 98.74529483389952 -4.500487597549556 L -0.1483404529302419 -0.28128047484684693 Z" style="vector-effect: non-scaling-stroke;" /></g><g style="fill: #808080;stroke: #808080;stroke-width: 0.375;fill-opacity: 0.1;" transform="matrix(1.0, 0.0, 0.0, 1.0, 0.0, 0.0)"><path d="M -0.14834045293024464 -0.28128047484684726 L 98.74529483389952 -4.500487597549556 L 98.74529483389952 81.78229806172085 L -0.1483404529302419 86.00150518442355 L -0.14834045293024464 -0.28128047484685226 Z" style="vector-effect: non-scaling-stroke;" /></g></g><g><g style="fill: #808080;stroke: #000000;stroke-width: 0.75;fill-opacity: 0.05;" transform="matrix(1.0, 0.0, 0.0, 1.0, 0.0, 0.0)"><path d="M 0.0 0.0 L -0.14834045293024464 -0.28128047484684726 L -0.14834045293024464 86.00150518442355 L 0.0 86.2827856592704 L 0.0 0.0 Z" style="vector-effect: non-scaling-stroke;" /></g><g style="fill: #808080;stroke: #000000;stroke-width: 0.75;fill-opacity: 0.05;" transform="matrix(1.0, 0.0, 0.0, 1.0, 0.0, 0.0)"><path d="M 0.0 0.0 L -0.14834045293024464 -0.28128047484684726 L 98.74529483389952 -4.500487597549556 L 98.89363528682976 -4.219207122702709 L 0.0 0.0 Z" style="vector-effect: non-scaling-stroke;" /></g><g style="fill: #808080;stroke: #000000;stroke-width: 0.75;fill-opacity: 0.05;" transform="matrix(1.0, 0.0, 0.0, 1.0, 0.0, 0.0)"><path d="M 0.0 0.0 L 98.89363528682976 -4.219207122702709 L 98.89363528682976 82.06357853656769 L 0.0 86.2827856592704 L 0.0 0.0 Z" style="vector-effect: non-scaling-stroke;" /></g></g></g></g></g></g><g /></g></g></g></g></g></g><g style="fill: #000000;stroke: black;stroke-width: 0.0;" transform="matrix(1.0, 0.0, 0.0, 1.0, 0.0, -1.0)"><text style="text-align:center; text-anchor:middle; dominant-baseline:middle;&#10;                      font-family:sans-serif; font-weight: bold;&#10;                      font-size:0.2px;&#10;                      vector-effect: non-scaling-stroke;" transform="translate(-5e-05, 0)">store</text></g></g></g></g></g></g></g></g></g></g></g></g><g /></g></g></g></g></svg>